# This file uses centimeters as units for non-parametric coordinates.

mtllib building.mtl
g default
v -3.702655 -0.000000 10.592354
v 3.653071 -0.000000 10.592354
v -3.702656 10.000000 10.592354
v 3.653071 10.000000 10.592354
v -3.702656 10.000000 4.592375
v 3.653071 10.000000 4.592375
v -3.702655 -0.000000 4.592375
v 3.653071 -0.000000 4.592375
v -3.702656 6.985160 10.592354
v 3.653071 6.985160 10.592354
v 3.653071 6.985160 4.592375
v -3.702656 6.985160 4.592375
v -3.702656 10.000000 0.000002
v 3.653071 10.000000 0.000002
v 3.653071 7.000000 0.000002
v -3.702656 7.000000 0.000002
v -2.024792 12.623717 8.661953
v 1.975208 12.623717 8.661953
v 1.975208 12.623717 4.848912
v -2.024792 12.623717 4.848912
v 1.975208 12.623717 1.930427
v -2.024792 12.623717 1.930427
v -2.024792 19.926217 10.191931
v 1.975208 19.926217 10.191931
v 1.975208 19.926217 4.669440
v -2.024792 19.926217 4.669440
v 1.975208 20.000000 0.000002
v -2.024792 20.000000 0.000002
v -2.024792 23.165059 4.669439
v 1.975208 23.165059 4.669439
v -3.702655 -0.000000 -10.592352
v 3.653071 -0.000000 -10.592352
v -3.702656 10.000000 -10.592352
v 3.653071 10.000000 -10.592352
v -3.702656 10.000000 -4.592353
v 3.653071 10.000000 -4.592353
v -3.702655 -0.000000 -4.592353
v 3.653071 -0.000000 -4.592353
v -3.702656 6.985160 -10.592352
v 3.653071 6.985160 -10.592352
v 3.653071 6.985160 -4.592353
v -3.702656 6.985160 -4.592353
v -3.702656 10.000000 -0.000000
v 3.653071 10.000000 -0.000000
v 3.653071 7.000000 -0.000000
v -3.702656 7.000000 -0.000000
v -2.024792 12.623717 -8.661951
v 1.975208 12.623717 -8.661951
v 1.975208 12.623717 -4.848893
v -2.024792 12.623717 -4.848893
v 1.975208 12.623717 -1.930407
v -2.024792 12.623717 -1.930407
v -2.024792 19.926217 -10.191930
v 1.975208 19.926217 -10.191930
v 1.975208 19.926217 -4.669421
v -2.024792 19.926217 -4.669421
v 1.975208 20.000000 -0.000000
v -2.024792 20.000000 -0.000000
v -2.024792 23.165059 -4.669418
v 1.975208 23.165059 -4.669418
vt 0.433934 0.509952
vt 0.552523 0.509952
vt 0.177362 0.759764
vt 0.429511 0.759764
vt 0.272994 0.884788
vt 0.474677 0.884922
vt 0.750461 0.564433
vt 0.560996 0.564433
vt 0.327141 0.739228
vt 0.327141 0.608510
vt 0.006152 0.203430
vt 0.122988 0.203430
vt 0.301842 0.490524
vt 0.418677 0.490524
vt 0.552523 0.564034
vt 0.433934 0.564034
vt 0.560996 0.384512
vt 0.122988 0.289531
vt 0.418678 0.576625
vt 0.750461 0.384512
vt 0.812594 0.016582
vt 0.944003 0.016582
vt 0.272737 0.884922
vt 0.474934 0.884586
vt 0.466563 0.020629
vt 0.719928 0.020629
vt 0.808627 0.271179
vt 0.944003 0.261669
vt 0.006152 0.289531
vt 0.301842 0.576625
vt 0.972367 0.271093
vt 0.662353 0.111003
vt 0.972518 0.447217
vt 0.808779 0.447302
vt 0.552522 0.509952
vt 0.552522 0.564034
vt 0.429566 0.759921
vt 0.371939 0.871467
vt 0.560996 0.564433
vt 0.560996 0.384512
vt 0.433767 0.608510
vt 0.433767 0.739228
vt 0.006152 0.003940
vt 0.122988 0.003940
vt 0.301842 0.291034
vt 0.418677 0.291034
vt 0.433934 0.564034
vt 0.433934 0.509952
vt 0.212413 0.203854
vt 0.750461 0.384512
vt 0.750461 0.564433
vt 0.212417 0.576625
vt 0.281371 0.989737
vt 0.410063 0.989425
vt 0.944184 0.017158
vt 0.944159 0.262257
vt 0.409706 0.989737
vt 0.281728 0.989553
vt 0.720038 0.020629
vt 0.662244 0.111003
vt 0.973806 0.271537
vt 0.812758 0.262257
vt 0.212413 0.289531
vt 0.212417 0.490948
vt 0.524465 0.111003
vt 0.972396 0.447658
vt 0.808660 0.446862
vt 0.810069 0.270741
vt 0.929077 0.928225
vt 0.929077 0.773895
vt 0.633515 0.766631
vt 0.633515 0.990149
vt 0.929077 0.655772
vt 0.630529 0.577640
vt 0.502426 0.766631
vt 0.418674 0.203430
vt 0.418674 0.289531
vt 0.301838 0.289531
vt 0.418674 0.203430
vt 0.301838 0.003941
vt 0.418674 0.003941
vt 0.212413 0.289531
vt 0.212413 0.203854
vt 0.929077 0.926499
vt 0.633515 0.988423
vt 0.633515 0.764905
vt 0.929077 0.772169
vt 0.630529 0.575914
vt 0.929077 0.654045
vt 0.502426 0.764905
vt 0.929077 0.772197
vt 0.929077 0.926527
vt 0.633515 0.988451
vt 0.633515 0.764933
vt 0.929077 0.654073
vt 0.630529 0.575942
vt 0.502426 0.764932
vt 0.122991 0.490524
vt 0.122991 0.576625
vt 0.006156 0.576625
vt 0.006156 0.490524
vt 0.122991 0.291035
vt 0.006156 0.291034
vt 0.212417 0.490948
vt 0.212417 0.576625
vt 0.929077 0.773867
vt 0.633515 0.766603
vt 0.633515 0.990121
vt 0.929077 0.928197
vt 0.929077 0.655744
vt 0.630529 0.577612
vt 0.502426 0.766603
vt 0.466671 0.020629
vt 0.807468 0.595777
vt 0.971204 0.596573
vt 0.524465 0.365078
vt 0.662244 0.365078
vt 0.812782 0.017158
vt 0.972646 0.596135
vt 0.808907 0.596220
vt 0.524575 0.111003
vt 0.524356 0.365077
vt 0.662135 0.365078
vt 0.812594 0.261669
vt 0.433934 0.384650
vt 0.552522 0.384650
vt 0.552523 0.384650
vt 0.433934 0.384650
vt 0.327022 0.608510
vt 0.327022 0.739228
vt 0.245411 0.739228
vt 0.245411 0.608510
vt 0.118430 0.884943
vt 0.183501 0.989652
vt 0.272787 0.885097
vt 0.281321 0.989880
vt 0.409656 0.990008
vt 0.474727 0.885300
vt 0.118223 0.884943
vt 0.183094 0.989781
vt 0.118173 0.884922
vt 0.183144 0.989737
vt 0.474984 0.884922
vt 0.410013 0.989737
vt 0.281678 0.989737
vt 0.273044 0.884922
vt 0.183451 0.989737
vt 0.118480 0.884922
vt 0.234822 0.871326
vt 0.177417 0.759661
vt 0.371995 0.871423
vt 0.234878 0.871423
vt 0.163921 0.739228
vt 0.057295 0.739228
vt 0.057295 0.608510
vt 0.163921 0.608510
vt 0.163801 0.608510
vt 0.245411 0.608510
vt 0.245411 0.739228
vt 0.163801 0.739228
vt 0.301838 0.203430
vt 0.301838 0.203430
vn 0.000000 0.000000 -1.000000
vn 0.000000 0.000000 -1.000000
vn 0.000000 0.000000 -1.000000
vn 0.000000 0.000000 -1.000000
vn 0.000000 1.000000 0.000000
vn 0.000000 1.000000 0.000000
vn 0.000000 1.000000 0.000000
vn 0.000000 1.000000 0.000000
vn -1.000000 0.000000 0.000000
vn -0.980844 -0.194796 0.000000
vn -0.966655 -0.256082 0.000000
vn -1.000000 0.000000 0.000000
vn 1.000000 0.000000 0.000000
vn 0.966655 -0.256082 0.000000
vn 0.980844 -0.194796 0.000000
vn 1.000000 0.000000 0.000000
vn 0.000000 0.000000 -1.000000
vn 0.000000 0.000000 -1.000000
vn -1.000000 0.000000 0.000000
vn -1.000000 0.000000 0.000000
vn 0.000000 0.000000 1.000000
vn 0.000000 0.000000 1.000000
vn 0.000000 0.000000 1.000000
vn 0.000000 0.000000 1.000000
vn 1.000000 0.000000 0.000000
vn 1.000000 0.000000 0.000000
vn -0.980781 -0.195113 0.000000
vn -1.000000 0.000000 0.000000
vn 0.000000 0.999995 0.003231
vn 0.000000 0.999995 0.003231
vn 0.000000 0.999995 0.003231
vn 0.000000 0.999995 0.003231
vn 1.000000 0.000000 0.000000
vn 0.980781 -0.195113 0.000000
vn 0.000000 -0.592629 -0.805476
vn 0.000000 -0.592629 -0.805476
vn 0.000000 -0.592629 -0.805476
vn 0.000000 -0.592629 -0.805476
vn -0.982275 -0.187448 0.000000
vn -0.985473 -0.169830 0.000000
vn 0.985473 -0.169830 0.000000
vn 0.982275 -0.187448 0.000000
vn -0.984627 -0.174671 0.000000
vn 0.000000 -0.592634 0.805472
vn 0.000000 -0.592634 0.805472
vn 0.000000 -0.592634 0.805472
vn 0.000000 -0.592634 0.805472
vn 0.984627 -0.174671 0.000000
vn 0.000000 0.205062 -0.978749
vn 0.000000 -0.354195 -0.935172
vn 0.000000 -0.354195 -0.935172
vn 0.000000 0.205062 -0.978749
vn -1.000000 0.000000 0.000000
vn -1.000000 0.000000 0.000000
vn 1.000000 0.000000 0.000000
vn 1.000000 0.000000 0.000000
vn -1.000000 0.000000 0.000000
vn 0.000000 0.253180 0.967419
vn 0.000000 -0.251484 0.967861
vn 0.000000 -0.251484 0.967861
vn 0.000000 0.253180 0.967419
vn 1.000000 0.000000 0.000000
vn 0.000000 -0.862594 -0.505896
vn 0.000000 -0.862594 -0.505896
vn -1.000000 0.000000 0.000000
vn 1.000000 0.000000 0.000000
vn 0.000000 -0.827763 0.561078
vn 0.000000 -0.827763 0.561078
vn 0.000000 0.000000 1.000000
vn 0.000000 0.000000 1.000000
vn 0.000000 0.000000 1.000000
vn 0.000000 0.000000 1.000000
vn 0.000000 1.000000 0.000000
vn 0.000000 1.000000 0.000000
vn 0.000000 1.000000 0.000000
vn 0.000000 1.000000 0.000000
vn -1.000000 0.000000 0.000000
vn -1.000000 0.000000 0.000000
vn -0.966655 -0.256082 0.000000
vn -0.980844 -0.194796 0.000000
vn 1.000000 0.000000 0.000000
vn 1.000000 0.000000 0.000000
vn 0.980844 -0.194796 0.000000
vn 0.966655 -0.256082 0.000000
vn 0.000000 0.000000 1.000000
vn 0.000000 0.000000 1.000000
vn -1.000000 0.000000 0.000000
vn -1.000000 0.000000 0.000000
vn 0.000000 0.000000 -1.000000
vn 0.000000 0.000000 -1.000000
vn 0.000000 0.000000 -1.000000
vn 0.000000 0.000000 -1.000000
vn 1.000000 0.000000 0.000000
vn 1.000000 0.000000 0.000000
vn -1.000000 0.000000 0.000000
vn -0.980781 -0.195114 0.000000
vn 0.000000 0.999995 -0.003231
vn 0.000000 0.999995 -0.003231
vn 0.000000 0.999995 -0.003231
vn 0.000000 0.999995 -0.003231
vn 0.980781 -0.195114 0.000000
vn 1.000000 0.000000 0.000000
vn 0.000000 -0.592629 0.805476
vn 0.000000 -0.592629 0.805476
vn 0.000000 -0.592629 0.805476
vn 0.000000 -0.592629 0.805476
vn -0.985473 -0.169830 0.000000
vn -0.982275 -0.187448 0.000000
vn 0.982275 -0.187448 0.000000
vn 0.985473 -0.169830 0.000000
vn -0.984627 -0.174671 0.000000
vn 0.000000 -0.592630 -0.805475
vn 0.000000 -0.592630 -0.805475
vn 0.000000 -0.592630 -0.805475
vn 0.000000 -0.592630 -0.805475
vn 0.984627 -0.174671 0.000000
vn 0.000000 0.205062 0.978749
vn 0.000000 0.205062 0.978749
vn 0.000000 -0.354196 0.935171
vn 0.000000 -0.354196 0.935171
vn -1.000000 0.000000 0.000000
vn -1.000000 0.000000 0.000000
vn 1.000000 0.000000 0.000000
vn 1.000000 0.000000 0.000000
vn -1.000000 0.000000 0.000000
vn 0.000000 0.253178 -0.967420
vn 0.000000 0.253178 -0.967420
vn 0.000000 -0.251484 -0.967861
vn 0.000000 -0.251484 -0.967861
vn 1.000000 0.000000 0.000000
vn 0.000000 -0.862595 0.505895
vn 0.000000 -0.862595 0.505895
vn -1.000000 0.000000 0.000000
vn 1.000000 0.000000 0.000000
vn 0.000000 -0.827762 -0.561080
vn 0.000000 -0.827762 -0.561080
s 1
g pCube41
usemtl lambert10SG
f 9/1/1 3/16/2 4/15/3 10/2/4
s off
f 7/9/5 1/42/6 2/41/7 8/10/8
s 2
f 10/11/9 4/29/10 6/18/11 11/12/12
s 3
f 12/13/13 5/30/14 3/19/15 9/14/16
s 1
f 1/125/17 9/1/1 10/2/4 2/126/18
s 2
f 2/43/19 10/11/9 11/12/12 8/44/20
s off
f 12/7/21 7/20/22 8/17/23 11/8/24
s 3
f 7/45/25 12/13/13 9/14/16 1/46/26
s 2
f 6/18/11 14/63/27 15/49/28 11/12/12
s off
f 11/129/29 15/132/30 16/131/31 12/130/32
s 3
f 12/13/13 16/64/33 13/52/34 5/30/14
s off
f 3/3/35 17/152/36 18/151/37 4/4/38
s 2
f 4/6/10 18/57/39 19/53/40 6/23/11
s 3
f 5/5/14 20/58/41 17/54/42 3/24/15
s 2
f 6/23/11 19/53/40 21/142/43 14/141/27
s off
f 14/25/44 21/121/45 22/32/46 13/26/47
s 3
f 13/133/34 22/134/48 20/58/41 5/5/14
s 4
f 17/21/49 23/124/50 24/28/51 18/22/52
s 2
f 18/69/39 24/72/53 25/71/54 19/70/40
s 3
f 20/91/41 26/94/55 23/93/56 17/92/42
s 2
f 19/70/40 25/71/54 27/74/57 21/73/43
s 5
f 21/121/58 27/122/59 28/123/60 22/32/61
s 3
f 22/95/48 28/96/62 26/94/55 20/91/41
s 4
f 23/27/50 29/34/63 30/33/64 24/31/51
s 2
f 24/72/53 30/75/65 25/71/54
s 3
f 26/94/55 29/97/66 23/93/56
s 2
f 25/71/54 30/75/65 27/74/57
s 5
f 27/119/59 30/33/67 29/34/68 28/120/60
s 3
f 28/96/62 29/97/66 26/94/55
s 6
f 39/35/69 40/48/70 34/47/71 33/36/72
s off
f 37/153/73 38/156/74 32/155/75 31/154/76
s 7
f 40/76/77 41/161/78 36/78/79 34/77/80
s 8
f 42/98/81 39/101/82 33/100/83 35/99/84
s 6
f 31/127/85 32/128/86 40/48/70 39/35/69
s 7
f 32/80/87 38/81/88 41/79/78 40/162/77
s off
f 42/39/89 41/51/90 38/50/91 37/40/92
s 8
f 37/102/93 31/103/94 39/101/82 42/98/81
s 7
f 36/78/79 41/161/78 45/83/95 44/82/96
s off
f 41/157/97 42/160/98 46/159/99 45/158/100
s 8
f 42/98/81 35/99/84 43/105/101 46/104/102
s off
f 33/37/103 34/150/104 48/149/105 47/38/106
s 7
f 34/143/80 36/146/79 49/145/107 48/144/108
s 8
f 35/135/84 33/138/83 47/137/109 50/136/110
s 7
f 36/146/79 44/148/96 51/147/111 49/145/107
s off
f 44/59/112 43/113/113 52/65/114 51/60/115
s 8
f 43/139/101 35/135/84 50/136/110 52/140/116
s 9
f 47/55/117 48/118/118 54/62/119 53/56/120
s 7
f 48/84/108 49/87/107 55/86/121 54/85/122
s 8
f 50/106/110 47/109/109 53/108/123 56/107/124
s 7
f 49/87/107 51/89/111 57/88/125 55/86/121
s 10
f 51/60/126 52/65/127 58/116/128 57/117/129
s 8
f 52/110/116 50/106/110 56/107/124 58/111/130
s 9
f 53/61/120 54/68/119 60/67/131 59/66/132
s 7
f 54/85/122 55/86/121 60/90/133
s 8
f 56/107/124 53/108/123 59/112/134
s 7
f 55/86/121 57/88/125 60/90/133
s 10
f 57/114/129 58/115/128 59/66/135 60/67/136
s 8
f 58/111/130 56/107/124 59/112/134
