# This file uses centimeters as units for non-parametric coordinates.

mtllib FarmingHoe.mtl
g default
v 2.872304 0.625824 0.126105
v 2.872304 0.662787 0.107271
v 2.872304 0.692121 0.077937
v 2.872304 0.710955 0.040974
v 2.872304 0.717444 -0.000000
v 2.872304 0.710955 -0.040974
v 2.872304 0.692121 -0.077937
v 2.872304 0.662787 -0.107271
v 2.872304 0.625824 -0.126105
v 2.872304 0.584850 -0.132594
v 2.872304 0.543876 -0.126105
v 2.872304 0.506913 -0.107271
v 2.872304 0.477579 -0.077937
v 2.872304 0.458745 -0.040974
v 2.872304 0.452255 -0.000000
v 2.872304 0.458745 0.040974
v 2.872304 0.477579 0.077937
v 2.872304 0.506913 0.107271
v 2.872304 0.543876 0.126105
v 2.872304 0.584850 0.132594
v 1.576882 0.625824 0.126105
v 1.576882 0.662787 0.107271
v 1.576882 0.692121 0.077937
v 1.576882 0.710955 0.040974
v 1.576882 0.717444 -0.000000
v 1.576882 0.710955 -0.040974
v 1.576882 0.692121 -0.077937
v 1.576882 0.662787 -0.107271
v 1.576882 0.625824 -0.126105
v 1.576882 0.584850 -0.132594
v 1.576882 0.543876 -0.126105
v 1.576882 0.506913 -0.107271
v 1.576882 0.477579 -0.077937
v 1.576882 0.458745 -0.040974
v 1.576882 0.452255 -0.000000
v 1.576882 0.458745 0.040974
v 1.576882 0.477579 0.077937
v 1.576882 0.506913 0.107271
v 1.576882 0.543876 0.126105
v 1.576882 0.584850 0.132594
v 2.872304 0.584850 -0.000000
v 1.576882 0.584850 -0.000000
v 2.784219 0.617924 0.101791
v 2.784219 0.647760 0.086589
v 2.784219 0.671439 0.062910
v 2.784219 0.686641 0.033074
v 2.784219 0.691879 -0.000000
v 2.784219 0.686641 -0.033074
v 2.784219 0.671439 -0.062910
v 2.784219 0.647760 -0.086589
v 2.784219 0.617924 -0.101791
v 2.784219 0.584850 -0.107030
v 2.784219 0.551776 -0.101791
v 2.784219 0.521939 -0.086589
v 2.784219 0.498261 -0.062910
v 2.784219 0.483059 -0.033074
v 2.784219 0.477820 -0.000000
v 2.784219 0.483059 0.033074
v 2.784219 0.498261 0.062910
v 2.784219 0.521939 0.086589
v 2.784219 0.551776 0.101791
v 2.784219 0.584850 0.107030
v -2.872304 0.617924 0.101791
v -2.872304 0.647760 0.086589
v -2.872304 0.671439 0.062910
v -2.872304 0.686641 0.033074
v -2.872304 0.691879 0.000000
v -2.872304 0.686641 -0.033074
v -2.872304 0.671439 -0.062910
v -2.872304 0.647760 -0.086589
v -2.872304 0.617924 -0.101791
v -2.872304 0.584850 -0.107030
v -2.872304 0.551776 -0.101791
v -2.872304 0.521939 -0.086589
v -2.872304 0.498261 -0.062910
v -2.872304 0.483059 -0.033074
v -2.872304 0.477820 -0.000000
v -2.872304 0.483059 0.033074
v -2.872304 0.498261 0.062910
v -2.872304 0.521939 0.086589
v -2.872304 0.551776 0.101791
v -2.872304 0.584850 0.107030
v 2.784219 0.584850 -0.000000
v -2.872304 0.584850 0.000000
v -2.685025 -0.782188 -0.782188
v -2.685025 -0.782188 0.782188
v -2.757457 0.782188 -0.782188
v -2.757457 0.782188 0.782188
v -2.583022 0.782188 -0.782188
v -2.583022 0.782188 0.782188
v -2.655453 -0.782188 -0.782188
v -2.655453 -0.782188 0.782188
v -2.733229 -0.295794 0.782188
v -2.733229 -0.295794 -0.782188
v -2.607249 -0.295794 -0.782188
v -2.607249 -0.295794 0.782188
vt 0.964264 0.135844
vt 0.943648 0.095384
vt 0.911539 0.063275
vt 0.871079 0.042659
vt 0.826228 0.035555
vt 0.781378 0.042659
vt 0.740918 0.063275
vt 0.708808 0.095384
vt 0.688193 0.135844
vt 0.681089 0.180694
vt 0.688193 0.225545
vt 0.708808 0.266005
vt 0.740918 0.298114
vt 0.781378 0.318730
vt 0.826228 0.325833
vt 0.871079 0.318730
vt 0.911539 0.298114
vt 0.943648 0.266005
vt 0.964264 0.225545
vt 0.971367 0.180694
vt 0.710117 0.325833
vt 0.721728 0.325833
vt 0.733339 0.325833
vt 0.744950 0.325833
vt 0.756562 0.325833
vt 0.768173 0.325833
vt 0.779784 0.325833
vt 0.791395 0.325833
vt 0.803006 0.325833
vt 0.814617 0.325833
vt 0.826228 0.325833
vt 0.837839 0.325833
vt 0.849450 0.325833
vt 0.861061 0.325833
vt 0.872673 0.325833
vt 0.884284 0.325833
vt 0.895895 0.325833
vt 0.907506 0.325833
vt 0.919117 0.325833
vt 0.930728 0.325833
vt 0.942339 0.325833
vt 0.710117 0.675040
vt 0.721728 0.675040
vt 0.733339 0.675040
vt 0.744950 0.675040
vt 0.756562 0.675040
vt 0.768173 0.675040
vt 0.779784 0.675040
vt 0.791395 0.675040
vt 0.803006 0.675040
vt 0.814617 0.675040
vt 0.826228 0.675040
vt 0.837839 0.675040
vt 0.849450 0.675040
vt 0.861061 0.675040
vt 0.872673 0.675040
vt 0.884284 0.675040
vt 0.895895 0.675040
vt 0.907506 0.675040
vt 0.919117 0.675040
vt 0.930728 0.675040
vt 0.942339 0.675040
vt 0.964264 0.774455
vt 0.943648 0.733995
vt 0.911539 0.701886
vt 0.871079 0.681270
vt 0.826228 0.674167
vt 0.781378 0.681270
vt 0.740918 0.701886
vt 0.708808 0.733995
vt 0.688193 0.774455
vt 0.681089 0.819306
vt 0.688193 0.864156
vt 0.708808 0.904616
vt 0.740918 0.936725
vt 0.781378 0.957341
vt 0.826228 0.964444
vt 0.871079 0.957341
vt 0.911539 0.936725
vt 0.943648 0.904616
vt 0.964264 0.864156
vt 0.971367 0.819306
vt 0.826228 0.174889
vt 0.826228 0.813500
vt 0.710117 0.325833
vt 0.721728 0.325833
vt 0.721728 0.675040
vt 0.710117 0.675040
vt 0.733339 0.325833
vt 0.733339 0.675040
vt 0.744950 0.325833
vt 0.744950 0.675040
vt 0.756562 0.325833
vt 0.756562 0.675040
vt 0.768173 0.325833
vt 0.768173 0.675040
vt 0.779784 0.325833
vt 0.779784 0.675040
vt 0.791395 0.325833
vt 0.791395 0.675040
vt 0.803006 0.325833
vt 0.803006 0.675040
vt 0.814617 0.325833
vt 0.814617 0.675040
vt 0.826228 0.325833
vt 0.826228 0.675040
vt 0.837839 0.325833
vt 0.837839 0.675040
vt 0.849450 0.325833
vt 0.849450 0.675040
vt 0.861061 0.325833
vt 0.861061 0.675040
vt 0.872673 0.325833
vt 0.872673 0.675040
vt 0.884284 0.325833
vt 0.884284 0.675040
vt 0.895895 0.325833
vt 0.895895 0.675040
vt 0.907506 0.325833
vt 0.907506 0.675040
vt 0.919117 0.325833
vt 0.919117 0.675040
vt 0.930728 0.325833
vt 0.930728 0.675040
vt 0.942339 0.325833
vt 0.942339 0.675040
vt 0.943648 0.095384
vt 0.964264 0.135844
vt 0.826228 0.174889
vt 0.911539 0.063275
vt 0.871079 0.042659
vt 0.826228 0.035555
vt 0.781378 0.042659
vt 0.740918 0.063275
vt 0.708808 0.095384
vt 0.688193 0.135844
vt 0.681089 0.180694
vt 0.688193 0.225545
vt 0.708808 0.266005
vt 0.740918 0.298114
vt 0.781378 0.318730
vt 0.826228 0.325833
vt 0.871079 0.318730
vt 0.911539 0.298114
vt 0.943648 0.266005
vt 0.964264 0.225545
vt 0.971367 0.180694
vt 0.964264 0.864156
vt 0.943648 0.904616
vt 0.826228 0.813500
vt 0.911539 0.936725
vt 0.871079 0.957341
vt 0.826228 0.964444
vt 0.781378 0.957341
vt 0.740918 0.936725
vt 0.708808 0.904616
vt 0.688193 0.864156
vt 0.681089 0.819306
vt 0.688193 0.774455
vt 0.708808 0.733995
vt 0.740918 0.701886
vt 0.781378 0.681270
vt 0.826228 0.674167
vt 0.871079 0.681270
vt 0.911539 0.701886
vt 0.943648 0.733995
vt 0.964264 0.774455
vt 0.971367 0.819306
vt 0.363122 0.558579
vt 0.363122 0.041421
vt 0.568902 0.041421
vt 0.568902 0.558579
vt 0.035184 0.964816
vt 0.035184 0.635184
vt 0.364816 0.635184
vt 0.364816 0.964816
vt 0.031098 0.558579
vt 0.031098 0.041421
vt 0.236878 0.041421
vt 0.236878 0.558579
vt 0.172058 0.635184
vt 0.227942 0.635184
vt 0.319033 0.737673
vt 0.080967 0.737673
vt 0.172058 0.635184
vt 0.227942 0.635184
vt 0.319033 0.737673
vt 0.080967 0.737673
vt 0.086428 0.964816
vt 0.086428 0.635184
vt 0.313572 0.635184
vt 0.313572 0.964816
vt 0.364816 0.964816
vt 0.035184 0.964816
vt 0.086428 0.964816
vt 0.086428 0.635184
vt 0.313572 0.635184
vt 0.313572 0.964816
vt 0.364816 0.964816
vt 0.035184 0.964816
vn 0.000000 0.309016 0.951057
vn 0.000000 0.587785 0.809017
vn 0.000000 0.309016 0.951057
vn 0.000000 0.587785 0.809017
vn 0.000000 0.809017 0.587785
vn 0.000000 0.809017 0.587785
vn 0.000000 0.951057 0.309016
vn 0.000000 0.951057 0.309017
vn -0.000000 1.000000 -0.000000
vn 0.000000 1.000000 0.000000
vn -0.000000 0.951056 -0.309017
vn -0.000000 0.951056 -0.309017
vn -0.000000 0.809017 -0.587786
vn -0.000000 0.809017 -0.587786
vn -0.000000 0.587785 -0.809017
vn -0.000000 0.587785 -0.809017
vn -0.000000 0.309017 -0.951057
vn -0.000000 0.309017 -0.951057
vn -0.000000 -0.000000 -1.000000
vn -0.000000 0.000000 -1.000000
vn -0.000000 -0.309017 -0.951057
vn -0.000000 -0.309017 -0.951057
vn -0.000000 -0.587786 -0.809017
vn -0.000000 -0.587785 -0.809017
vn -0.000000 -0.809017 -0.587785
vn -0.000000 -0.809017 -0.587785
vn -0.000000 -0.951057 -0.309017
vn -0.000000 -0.951057 -0.309017
vn 0.000000 -1.000000 0.000000
vn -0.000000 -1.000000 -0.000000
vn 0.000000 -0.951057 0.309017
vn 0.000000 -0.951057 0.309017
vn 0.000000 -0.809017 0.587785
vn 0.000000 -0.809017 0.587785
vn 0.000000 -0.587785 0.809017
vn 0.000000 -0.587785 0.809017
vn 0.000000 -0.309017 0.951057
vn 0.000000 -0.309017 0.951057
vn 0.000000 -0.000001 1.000000
vn 0.000000 -0.000001 1.000000
vn 1.000000 0.000000 -0.000000
vn 1.000000 0.000000 -0.000000
vn 1.000000 0.000000 0.000000
vn 1.000000 0.000000 -0.000011
vn 1.000000 0.000000 -0.000011
vn 1.000000 0.000000 -0.000000
vn 1.000000 0.000000 -0.000000
vn 1.000000 0.000000 -0.000000
vn 1.000000 0.000000 0.000003
vn 1.000000 0.000000 0.000003
vn 1.000000 0.000000 -0.000000
vn 1.000000 0.000000 -0.000000
vn 1.000000 0.000000 -0.000000
vn 1.000000 0.000000 -0.000000
vn 1.000000 0.000000 -0.000000
vn 1.000000 0.000000 -0.000000
vn 1.000000 0.000000 0.000011
vn 1.000000 0.000000 0.000011
vn 1.000000 0.000000 -0.000003
vn 1.000000 0.000000 -0.000003
vn 1.000000 0.000000 -0.000000
vn -1.000000 0.000000 -0.000003
vn -1.000000 0.000000 -0.000003
vn -1.000000 0.000000 -0.000001
vn -1.000000 0.000000 0.000000
vn -1.000000 0.000000 0.000000
vn -1.000000 0.000000 0.000000
vn -1.000000 0.000000 0.000000
vn -1.000000 0.000000 0.000000
vn -1.000000 0.000000 0.000000
vn -1.000000 0.000000 0.000000
vn -1.000000 0.000000 0.000000
vn -1.000000 0.000000 0.000000
vn -1.000000 0.000000 0.000000
vn -1.000000 0.000000 0.000005
vn -1.000000 0.000000 0.000005
vn -1.000000 0.000000 0.000000
vn -1.000000 0.000000 -0.000011
vn -1.000000 0.000000 -0.000011
vn -1.000000 0.000000 0.000000
vn -1.000000 0.000000 0.000000
vn -1.000000 0.000000 0.000000
vn 0.000000 0.309016 0.951057
vn 0.000000 0.587785 0.809017
vn 0.000000 0.309016 0.951057
vn 0.000000 0.587785 0.809017
vn 0.000000 0.809017 0.587786
vn 0.000000 0.809017 0.587785
vn 0.000000 0.951057 0.309017
vn 0.000000 0.951057 0.309017
vn -0.000000 1.000000 -0.000001
vn -0.000000 1.000000 -0.000001
vn -0.000000 0.951057 -0.309017
vn -0.000000 0.951057 -0.309017
vn -0.000000 0.809017 -0.587785
vn -0.000000 0.809017 -0.587785
vn -0.000000 0.587785 -0.809017
vn -0.000000 0.587785 -0.809017
vn -0.000000 0.309017 -0.951057
vn -0.000000 0.309017 -0.951057
vn -0.000000 -0.000000 -1.000000
vn -0.000000 0.000000 -1.000000
vn -0.000000 -0.309017 -0.951057
vn -0.000000 -0.309017 -0.951057
vn -0.000000 -0.587785 -0.809017
vn -0.000000 -0.587785 -0.809017
vn -0.000000 -0.809017 -0.587785
vn -0.000000 -0.809017 -0.587785
vn -0.000000 -0.951056 -0.309017
vn -0.000000 -0.951057 -0.309017
vn 0.000000 -1.000000 0.000000
vn 0.000000 -1.000000 0.000000
vn 0.000000 -0.951057 0.309017
vn 0.000000 -0.951056 0.309017
vn 0.000000 -0.809017 0.587785
vn 0.000000 -0.809017 0.587785
vn 0.000000 -0.587785 0.809017
vn 0.000000 -0.587785 0.809017
vn 0.000000 -0.309017 0.951057
vn 0.000000 -0.309017 0.951057
vn 0.000000 -0.000001 1.000000
vn 0.000000 -0.000001 1.000000
vn 1.000000 0.000000 -0.000000
vn 1.000000 0.000000 -0.000000
vn 1.000000 0.000000 0.000001
vn 1.000000 0.000000 -0.000000
vn 1.000000 0.000000 -0.000000
vn 1.000000 0.000000 -0.000000
vn 1.000000 0.000000 -0.000008
vn 1.000000 0.000000 -0.000008
vn 1.000000 0.000000 -0.000004
vn 1.000000 0.000000 -0.000004
vn 1.000000 0.000000 -0.000000
vn 1.000000 0.000000 -0.000000
vn 1.000000 0.000000 0.000008
vn 1.000000 0.000000 0.000008
vn 1.000000 0.000000 -0.000000
vn 1.000000 0.000000 -0.000000
vn 1.000000 0.000000 0.000008
vn 1.000000 0.000000 0.000008
vn 1.000000 0.000000 0.000004
vn 1.000000 0.000000 0.000004
vn 1.000000 0.000000 -0.000000
vn -1.000000 0.000000 0.000000
vn -1.000000 0.000000 0.000000
vn -1.000000 0.000000 -0.000000
vn -1.000000 0.000000 0.000000
vn -1.000000 0.000000 0.000000
vn -1.000000 0.000000 0.000000
vn -1.000000 0.000000 0.000000
vn -1.000000 0.000000 0.000000
vn -1.000000 0.000000 0.000000
vn -1.000000 0.000000 0.000000
vn -1.000000 0.000000 0.000000
vn -1.000000 0.000000 0.000000
vn -1.000000 0.000000 -0.000000
vn -1.000000 0.000000 0.000000
vn -1.000000 0.000000 0.000001
vn -1.000000 0.000000 0.000000
vn -1.000000 0.000000 -0.000001
vn -1.000000 0.000000 -0.000001
vn -1.000000 0.000000 0.000000
vn -1.000000 0.000000 0.000000
vn -1.000000 0.000000 0.000000
vn -0.995125 -0.098621 0.000000
vn -0.995125 -0.098621 0.000000
vn -0.998930 -0.046251 0.000000
vn -0.998930 -0.046251 0.000000
vn 0.000000 1.000000 0.000000
vn 0.000000 1.000000 0.000000
vn 0.000000 1.000000 0.000000
vn 0.000000 1.000000 0.000000
vn 0.998930 -0.046251 -0.000000
vn 0.998930 -0.046251 -0.000000
vn 0.995125 -0.098621 -0.000000
vn 0.995125 -0.098621 -0.000000
vn 0.000000 -1.000000 0.000000
vn 0.000000 -1.000000 0.000000
vn 0.000000 -1.000000 0.000000
vn 0.000000 -1.000000 0.000000
vn 0.000000 -0.000001 1.000000
vn 0.000000 -0.000000 1.000000
vn 0.000000 0.000000 1.000000
vn 0.000000 0.000000 1.000000
vn -0.000000 -0.000001 -1.000000
vn -0.000000 -0.000000 -1.000000
vn -0.000000 0.000000 -1.000000
vn -0.000000 0.000000 -1.000000
vn -0.999748 -0.022469 0.000000
vn -0.999748 -0.022469 0.000000
vn -0.000000 -0.000000 -1.000000
vn -0.000000 -0.000000 -1.000000
vn 0.999748 -0.022469 -0.000000
vn 0.999748 -0.022469 -0.000000
vn 0.000000 -0.000000 1.000000
vn 0.000000 0.000000 1.000000
s 1
g pCylinder3
usemtl lambert2SG
f 1/21/1 2/22/2 21/42/3
f 21/42/3 2/22/2 22/43/4
f 2/22/2 3/23/5 22/43/4
f 22/43/4 3/23/5 23/44/6
f 3/23/5 4/24/7 23/44/6
f 23/44/6 4/24/7 24/45/8
f 4/24/7 5/25/9 24/45/8
f 24/45/8 5/25/9 25/46/10
f 5/25/9 6/26/11 25/46/10
f 25/46/10 6/26/11 26/47/12
f 6/26/11 7/27/13 26/47/12
f 26/47/12 7/27/13 27/48/14
f 7/27/13 8/28/15 27/48/14
f 27/48/14 8/28/15 28/49/16
f 8/28/15 9/29/17 28/49/16
f 28/49/16 9/29/17 29/50/18
f 9/29/17 10/30/19 29/50/18
f 29/50/18 10/30/19 30/51/20
f 10/30/19 11/31/21 30/51/20
f 30/51/20 11/31/21 31/52/22
f 11/31/21 12/32/23 31/52/22
f 31/52/22 12/32/23 32/53/24
f 12/32/23 13/33/25 32/53/24
f 32/53/24 13/33/25 33/54/26
f 13/33/25 14/34/27 33/54/26
f 33/54/26 14/34/27 34/55/28
f 14/34/27 15/35/29 34/55/28
f 34/55/28 15/35/29 35/56/30
f 15/35/29 16/36/31 35/56/30
f 35/56/30 16/36/31 36/57/32
f 16/36/31 17/37/33 36/57/32
f 36/57/32 17/37/33 37/58/34
f 17/37/33 18/38/35 37/58/34
f 37/58/34 18/38/35 38/59/36
f 18/38/35 19/39/37 38/59/36
f 38/59/36 19/39/37 39/60/38
f 19/39/37 20/40/39 39/60/38
f 39/60/38 20/40/39 40/61/40
f 20/40/39 1/41/1 40/61/40
f 40/61/40 1/41/1 21/62/3
s 2
f 2/2/41 1/1/42 41/83/43
f 3/3/44 2/2/41 41/83/43
f 4/4/45 3/3/44 41/83/43
f 5/5/46 4/4/45 41/83/43
f 6/6/47 5/5/46 41/83/43
f 7/7/48 6/6/47 41/83/43
f 8/8/49 7/7/48 41/83/43
f 9/9/50 8/8/49 41/83/43
f 10/10/51 9/9/50 41/83/43
f 11/11/52 10/10/51 41/83/43
f 12/12/53 11/11/52 41/83/43
f 13/13/54 12/12/53 41/83/43
f 14/14/55 13/13/54 41/83/43
f 15/15/56 14/14/55 41/83/43
f 16/16/57 15/15/56 41/83/43
f 17/17/58 16/16/57 41/83/43
f 18/18/59 17/17/58 41/83/43
f 19/19/60 18/18/59 41/83/43
f 20/20/61 19/19/60 41/83/43
f 1/1/42 20/20/61 41/83/43
s 3
f 21/81/62 22/80/63 42/84/64
f 22/80/63 23/79/65 42/84/64
f 23/79/65 24/78/66 42/84/64
f 24/78/66 25/77/67 42/84/64
f 25/77/67 26/76/68 42/84/64
f 26/76/68 27/75/69 42/84/64
f 27/75/69 28/74/70 42/84/64
f 28/74/70 29/73/71 42/84/64
f 29/73/71 30/72/72 42/84/64
f 30/72/72 31/71/73 42/84/64
f 31/71/73 32/70/74 42/84/64
f 32/70/74 33/69/75 42/84/64
f 33/69/75 34/68/76 42/84/64
f 34/68/76 35/67/77 42/84/64
f 35/67/77 36/66/78 42/84/64
f 36/66/78 37/65/79 42/84/64
f 37/65/79 38/64/80 42/84/64
f 38/64/80 39/63/81 42/84/64
f 39/63/81 40/82/82 42/84/64
f 40/82/82 21/81/62 42/84/64
s 4
f 43/85/83 44/86/84 63/88/85
f 63/88/85 44/86/84 64/87/86
f 44/86/84 45/89/87 64/87/86
f 64/87/86 45/89/87 65/90/88
f 45/89/87 46/91/89 65/90/88
f 65/90/88 46/91/89 66/92/90
f 46/91/89 47/93/91 66/92/90
f 66/92/90 47/93/91 67/94/92
f 47/93/91 48/95/93 67/94/92
f 67/94/92 48/95/93 68/96/94
f 48/95/93 49/97/95 68/96/94
f 68/96/94 49/97/95 69/98/96
f 49/97/95 50/99/97 69/98/96
f 69/98/96 50/99/97 70/100/98
f 50/99/97 51/101/99 70/100/98
f 70/100/98 51/101/99 71/102/100
f 51/101/99 52/103/101 71/102/100
f 71/102/100 52/103/101 72/104/102
f 52/103/101 53/105/103 72/104/102
f 72/104/102 53/105/103 73/106/104
f 53/105/103 54/107/105 73/106/104
f 73/106/104 54/107/105 74/108/106
f 54/107/105 55/109/107 74/108/106
f 74/108/106 55/109/107 75/110/108
f 55/109/107 56/111/109 75/110/108
f 75/110/108 56/111/109 76/112/110
f 56/111/109 57/113/111 76/112/110
f 76/112/110 57/113/111 77/114/112
f 57/113/111 58/115/113 77/114/112
f 77/114/112 58/115/113 78/116/114
f 58/115/113 59/117/115 78/116/114
f 78/116/114 59/117/115 79/118/116
f 59/117/115 60/119/117 79/118/116
f 79/118/116 60/119/117 80/120/118
f 60/119/117 61/121/119 80/120/118
f 80/120/118 61/121/119 81/122/120
f 61/121/119 62/123/121 81/122/120
f 81/122/120 62/123/121 82/124/122
f 62/123/121 43/125/83 82/124/122
f 82/124/122 43/125/83 63/126/85
s 5
f 44/127/123 43/128/124 83/129/125
f 45/130/126 44/127/123 83/129/125
f 46/131/127 45/130/126 83/129/125
f 47/132/128 46/131/127 83/129/125
f 48/133/129 47/132/128 83/129/125
f 49/134/130 48/133/129 83/129/125
f 50/135/131 49/134/130 83/129/125
f 51/136/132 50/135/131 83/129/125
f 52/137/133 51/136/132 83/129/125
f 53/138/134 52/137/133 83/129/125
f 54/139/135 53/138/134 83/129/125
f 55/140/136 54/139/135 83/129/125
f 56/141/137 55/140/136 83/129/125
f 57/142/138 56/141/137 83/129/125
f 58/143/139 57/142/138 83/129/125
f 59/144/140 58/143/139 83/129/125
f 60/145/141 59/144/140 83/129/125
f 61/146/142 60/145/141 83/129/125
f 62/147/143 61/146/142 83/129/125
f 43/128/124 62/147/143 83/129/125
s 6
f 63/148/144 64/149/145 84/150/146
f 64/149/145 65/151/147 84/150/146
f 65/151/147 66/152/148 84/150/146
f 66/152/148 67/153/149 84/150/146
f 67/153/149 68/154/150 84/150/146
f 68/154/150 69/155/151 84/150/146
f 69/155/151 70/156/152 84/150/146
f 70/156/152 71/157/153 84/150/146
f 71/157/153 72/158/154 84/150/146
f 72/158/154 73/159/155 84/150/146
f 73/159/155 74/160/156 84/150/146
f 74/160/156 75/161/157 84/150/146
f 75/161/157 76/162/158 84/150/146
f 76/162/158 77/163/159 84/150/146
f 77/163/159 78/164/160 84/150/146
f 78/164/160 79/165/161 84/150/146
f 79/165/161 80/166/162 84/150/146
f 80/166/162 81/167/163 84/150/146
f 81/167/163 82/168/164 84/150/146
f 82/168/164 63/148/144 84/150/146
s 7
f 85/169/165 86/170/166 94/172/167
f 94/172/167 86/170/166 93/171/168
s 8
f 87/173/169 88/174/170 89/176/171
f 89/176/171 88/174/170 90/175/172
s 9
f 95/177/173 96/178/174 91/180/175
f 91/180/175 96/178/174 92/179/176
s 10
f 91/180/177 92/179/178 85/169/179
f 85/169/179 92/179/178 86/170/180
s 11
f 86/181/181 92/182/182 93/184/183
f 93/184/183 92/182/182 96/183/184
s 12
f 91/185/185 85/186/186 95/188/187
f 95/188/187 85/186/186 94/187/188
s 7
f 94/189/167 93/190/168 87/192/189
f 87/192/189 93/190/168 88/191/190
s 12
f 95/188/187 94/187/188 89/194/191
f 89/194/191 94/187/188 87/193/192
s 9
f 89/195/193 90/196/194 95/198/173
f 95/198/173 90/196/194 96/197/174
s 11
f 93/184/183 96/183/184 88/200/195
f 88/200/195 96/183/184 90/199/196
