# This file uses centimeters as units for non-parametric coordinates.

mtllib Scar_Casing.mtl
g default
v 3.745302 0.138391 0.232143
v 3.745302 0.117606 0.191350
v 3.745302 0.085233 0.158976
v 3.745302 0.044440 0.138191
v 3.745302 -0.000779 0.131029
v 3.745302 -0.045999 0.138191
v 3.745302 -0.086791 0.158976
v 3.745302 -0.119165 0.191350
v 3.745302 -0.139950 0.232143
v 3.745302 -0.147112 0.277362
v 3.745302 -0.139950 0.322581
v 3.745302 -0.119165 0.363374
v 3.745302 -0.086791 0.395747
v 3.745302 -0.045999 0.416532
v 3.745302 -0.000779 0.423694
v 3.745302 0.044440 0.416532
v 3.745302 0.085233 0.395747
v 3.745302 0.117606 0.363374
v 3.745302 0.138391 0.322581
v 3.745302 0.145553 0.277362
v -0.084952 0.258004 0.193278
v -0.084952 0.219355 0.117425
v -0.084952 0.159158 0.057227
v -0.084952 0.083305 0.018578
v -0.084952 -0.000779 0.005261
v -0.084952 -0.084863 0.018578
v -0.084952 -0.160716 0.057227
v -0.084952 -0.220914 0.117425
v -0.084952 -0.259563 0.193278
v -0.084952 -0.272880 0.277362
v -0.084952 -0.259563 0.361446
v -0.084952 -0.220914 0.437299
v -0.084952 -0.160716 0.497496
v -0.084952 -0.084863 0.536145
v -0.084952 -0.000779 0.549463
v -0.084952 0.083305 0.536145
v -0.084952 0.159158 0.497496
v -0.084952 0.219355 0.437299
v -0.084952 0.258004 0.361446
v -0.084952 0.271322 0.277362
v 3.745302 -0.000779 0.277362
v -0.084952 -0.000779 0.277362
v 3.171273 0.121824 0.366439
v 3.171273 0.088298 0.399965
v 3.171273 0.046051 0.421491
v 3.171273 -0.000779 0.428908
v 3.171273 -0.047610 0.421491
v 3.171273 -0.089856 0.399965
v 3.171273 -0.123383 0.366439
v 3.171273 -0.144908 0.324192
v 3.171273 -0.152326 0.277362
v 3.171273 -0.144908 0.230531
v 3.171273 -0.123383 0.188285
v 3.171273 -0.089856 0.154758
v 3.171273 -0.047610 0.133233
v 3.171273 -0.000779 0.125815
v 3.171273 0.046051 0.133233
v 3.171273 0.088298 0.154758
v 3.171273 0.121825 0.188285
v 3.171273 0.143350 0.230531
v 3.171273 0.150767 0.277362
v 3.171273 0.143350 0.324192
v 2.545350 0.219355 0.437299
v 2.545350 0.159158 0.497496
v 2.545350 0.083305 0.536145
v 2.545350 -0.000779 0.549463
v 2.545350 -0.084863 0.536145
v 2.545350 -0.160716 0.497496
v 2.545350 -0.220914 0.437299
v 2.545350 -0.259563 0.361446
v 2.545350 -0.272880 0.277362
v 2.545350 -0.259563 0.193278
v 2.545350 -0.220914 0.117425
v 2.545350 -0.160716 0.057227
v 2.545350 -0.084863 0.018578
v 2.545350 -0.000779 0.005261
v 2.545350 0.083305 0.018578
v 2.545350 0.159158 0.057227
v 2.545350 0.219355 0.117425
v 2.545350 0.258004 0.193278
v 2.545350 0.271322 0.277362
v 2.545350 0.258004 0.361446
v -0.043435 0.219355 0.437299
v -0.043435 0.159158 0.497496
v -0.043435 0.083305 0.536145
v -0.043435 -0.000779 0.549463
v -0.043435 -0.084863 0.536145
v -0.043435 -0.160716 0.497496
v -0.043435 -0.220914 0.437299
v -0.043435 -0.259563 0.361446
v -0.043435 -0.272880 0.277362
v -0.043435 -0.259563 0.193278
v -0.043435 -0.220914 0.117425
v -0.043435 -0.160716 0.057227
v -0.043435 -0.084863 0.018578
v -0.043435 -0.000779 0.005261
v -0.043435 0.083305 0.018578
v -0.043435 0.159158 0.057227
v -0.043435 0.219355 0.117425
v -0.043435 0.258004 0.193278
v -0.043435 0.271322 0.277362
v -0.043435 0.258004 0.361446
v 0.000228 0.183071 0.410937
v 0.000228 0.132796 0.461212
v 0.000228 0.069445 0.493490
v 0.000228 -0.000779 0.504613
v 0.000228 -0.071004 0.493490
v 0.000228 -0.134354 0.461212
v 0.000228 -0.184629 0.410937
v 0.000228 -0.216908 0.347586
v 0.000228 -0.228030 0.277362
v 0.000228 -0.216908 0.207137
v 0.000228 -0.184629 0.143787
v 0.000228 -0.134354 0.093512
v 0.000228 -0.071004 0.061233
v 0.000228 -0.000779 0.050111
v 0.000228 0.069445 0.061233
v 0.000228 0.132796 0.093512
v 0.000228 0.183071 0.143787
v 0.000228 0.215350 0.207137
v 0.000228 0.226472 0.277362
v 0.000228 0.215349 0.347586
v 0.043891 0.219355 0.437299
v 0.043891 0.159158 0.497496
v 0.043891 0.083305 0.536145
v 0.043891 -0.000779 0.549463
v 0.043891 -0.084863 0.536145
v 0.043891 -0.160716 0.497496
v 0.043891 -0.220914 0.437299
v 0.043891 -0.259563 0.361446
v 0.043891 -0.272880 0.277362
v 0.043891 -0.259563 0.193278
v 0.043891 -0.220914 0.117425
v 0.043891 -0.160716 0.057227
v 0.043891 -0.084863 0.018578
v 0.043891 -0.000779 0.005261
v 0.043891 0.083305 0.018578
v 0.043891 0.159158 0.057227
v 0.043891 0.219355 0.117425
v 0.043891 0.258004 0.193278
v 0.043891 0.271322 0.277362
v 0.043891 0.258004 0.361446
vt 0.086830 0.101054
vt 0.089544 0.101054
vt 0.089544 0.119688
vt 0.086830 0.119688
vt 0.092258 0.101054
vt 0.092258 0.119688
vt 0.094972 0.101054
vt 0.094972 0.119688
vt 0.097687 0.101054
vt 0.097687 0.119688
vt 0.100401 0.101054
vt 0.100401 0.119688
vt 0.103115 0.101054
vt 0.103115 0.119688
vt 0.105829 0.101054
vt 0.105829 0.119688
vt 0.108543 0.101054
vt 0.108543 0.119688
vt 0.111257 0.101054
vt 0.111257 0.119688
vt 0.113971 0.101054
vt 0.113971 0.119688
vt 0.116685 0.101054
vt 0.116685 0.119688
vt 0.119399 0.101054
vt 0.119399 0.119688
vt 0.122113 0.101054
vt 0.122113 0.119688
vt 0.124827 0.101054
vt 0.124827 0.119688
vt 0.127541 0.101054
vt 0.127541 0.119688
vt 0.130255 0.101054
vt 0.130255 0.119688
vt 0.132969 0.101054
vt 0.132969 0.119688
vt 0.135683 0.101054
vt 0.135683 0.119688
vt 0.138398 0.101054
vt 0.138398 0.119688
vt 0.141112 0.101054
vt 0.141112 0.119688
vt 0.141418 0.047187
vt 0.146236 0.056644
vt 0.113971 0.065771
vt 0.133912 0.039682
vt 0.124455 0.034863
vt 0.113971 0.033202
vt 0.103487 0.034863
vt 0.094030 0.039682
vt 0.086524 0.047187
vt 0.081706 0.056644
vt 0.080045 0.067128
vt 0.081706 0.077612
vt 0.086524 0.087069
vt 0.094030 0.094575
vt 0.103487 0.099394
vt 0.113971 0.101054
vt 0.124455 0.099394
vt 0.133912 0.094575
vt 0.141418 0.087069
vt 0.146236 0.077612
vt 0.147897 0.067128
vt 0.146236 0.226886
vt 0.141418 0.236343
vt 0.113971 0.215045
vt 0.133912 0.243848
vt 0.124455 0.248667
vt 0.113971 0.250328
vt 0.103487 0.248667
vt 0.094030 0.243848
vt 0.086524 0.236343
vt 0.081706 0.226886
vt 0.080045 0.216402
vt 0.081706 0.205918
vt 0.086524 0.196461
vt 0.094030 0.188955
vt 0.103487 0.184136
vt 0.113971 0.182476
vt 0.124455 0.184136
vt 0.133912 0.188955
vt 0.141418 0.196461
vt 0.146236 0.205918
vt 0.147897 0.216402
vt 0.132969 0.129751
vt 0.130255 0.129751
vt 0.127541 0.129751
vt 0.124827 0.129751
vt 0.122113 0.129751
vt 0.119399 0.129751
vt 0.116685 0.129751
vt 0.113971 0.129751
vt 0.111257 0.129751
vt 0.108543 0.129751
vt 0.105829 0.129751
vt 0.103115 0.129751
vt 0.100401 0.129751
vt 0.097687 0.129751
vt 0.094972 0.129751
vt 0.092258 0.129751
vt 0.089544 0.129751
vt 0.086830 0.129751
vt 0.141112 0.129751
vt 0.138398 0.129751
vt 0.135683 0.129751
vt 0.130255 0.179879
vt 0.132969 0.179879
vt 0.127541 0.179879
vt 0.124827 0.179879
vt 0.122113 0.179879
vt 0.119399 0.179879
vt 0.116685 0.179879
vt 0.113971 0.179879
vt 0.111257 0.179879
vt 0.108543 0.179879
vt 0.105829 0.179879
vt 0.103115 0.179879
vt 0.100401 0.179879
vt 0.097687 0.179879
vt 0.094972 0.179879
vt 0.092258 0.179879
vt 0.089544 0.179879
vt 0.086830 0.179879
vt 0.138398 0.179879
vt 0.141112 0.179879
vt 0.135683 0.179879
vt 0.130255 0.181777
vt 0.132969 0.181777
vt 0.132969 0.182680
vt 0.130255 0.182680
vt 0.127541 0.181777
vt 0.127541 0.182680
vt 0.124827 0.181777
vt 0.124827 0.182680
vt 0.122113 0.181777
vt 0.122113 0.182680
vt 0.119399 0.181777
vt 0.119399 0.182680
vt 0.116685 0.181777
vt 0.116685 0.182680
vt 0.113971 0.181777
vt 0.113971 0.182680
vt 0.111257 0.181777
vt 0.111257 0.182680
vt 0.108543 0.181777
vt 0.108543 0.182680
vt 0.105829 0.181777
vt 0.105829 0.182680
vt 0.103115 0.181777
vt 0.103115 0.182680
vt 0.100401 0.181777
vt 0.100401 0.182680
vt 0.097687 0.181777
vt 0.097687 0.182680
vt 0.094972 0.181777
vt 0.094972 0.182680
vt 0.092258 0.181777
vt 0.092258 0.182680
vt 0.089544 0.181777
vt 0.089544 0.182680
vt 0.086830 0.181777
vt 0.086830 0.182680
vt 0.138398 0.181777
vt 0.141112 0.181777
vt 0.141112 0.182680
vt 0.138398 0.182680
vt 0.135683 0.181777
vt 0.135683 0.182680
vt 0.130255 0.180828
vt 0.132969 0.180828
vt 0.127541 0.180828
vt 0.124827 0.180828
vt 0.122113 0.180828
vt 0.119399 0.180828
vt 0.116685 0.180828
vt 0.113971 0.180828
vt 0.111257 0.180828
vt 0.108543 0.180828
vt 0.105829 0.180828
vt 0.103115 0.180828
vt 0.100401 0.180828
vt 0.097687 0.180828
vt 0.094972 0.180828
vt 0.092258 0.180828
vt 0.089544 0.180828
vt 0.086830 0.180828
vt 0.138398 0.180828
vt 0.141112 0.180828
vt 0.135683 0.180828
vn 0.009083 0.951017 -0.309005
vn 0.009083 0.808984 -0.587761
vn 0.120623 0.803110 -0.583493
vn 0.120623 0.944112 -0.306760
vn 0.009083 0.587761 -0.808983
vn 0.120623 0.583493 -0.803110
vn 0.009083 0.309004 -0.951017
vn 0.120623 0.306761 -0.944112
vn 0.009083 0.000000 -0.999959
vn 0.120623 0.000000 -0.992698
vn 0.009083 -0.309005 -0.951017
vn 0.120623 -0.306761 -0.944112
vn 0.009083 -0.587763 -0.808983
vn 0.120623 -0.583494 -0.803109
vn 0.009083 -0.808984 -0.587761
vn 0.120623 -0.803110 -0.583493
vn 0.009083 -0.951017 -0.309006
vn 0.120623 -0.944112 -0.306762
vn 0.009083 -0.999959 -0.000000
vn 0.120623 -0.992698 0.000000
vn 0.009083 -0.951017 0.309005
vn 0.120623 -0.944112 0.306762
vn 0.009083 -0.808984 0.587761
vn 0.120623 -0.803110 0.583494
vn 0.009083 -0.587762 0.808983
vn 0.120623 -0.583494 0.803109
vn 0.009083 -0.309004 0.951017
vn 0.120623 -0.306761 0.944112
vn 0.009083 -0.000000 0.999959
vn 0.120623 0.000000 0.992698
vn 0.009083 0.309005 0.951017
vn 0.120623 0.306761 0.944112
vn 0.009083 0.587762 0.808983
vn 0.120623 0.583494 0.803109
vn 0.009083 0.808983 0.587761
vn 0.120623 0.803110 0.583493
vn 0.009083 0.951017 0.309006
vn 0.120623 0.944112 0.306762
vn 0.009083 0.999959 -0.000000
vn 0.120623 0.992698 0.000001
vn 1.000000 -0.000005 0.000000
vn 1.000000 -0.000005 0.000000
vn 1.000000 0.000000 0.000000
vn 1.000000 0.000000 0.000000
vn 1.000000 0.000000 0.000000
vn 1.000000 0.000000 0.000000
vn 1.000000 0.000009 0.000000
vn 1.000000 0.000005 0.000000
vn 1.000000 -0.000005 0.000000
vn 1.000000 0.000000 0.000000
vn 1.000000 0.000000 0.000000
vn 1.000000 0.000000 0.000000
vn 1.000000 0.000000 0.000000
vn 1.000000 0.000000 0.000000
vn 1.000000 0.000009 0.000000
vn 1.000000 0.000000 0.000000
vn 1.000000 -0.000009 0.000000
vn 1.000000 0.000000 0.000000
vn 1.000000 0.000000 0.000000
vn 1.000000 0.000000 0.000000
vn 1.000000 0.000000 0.000000
vn -1.000000 0.000000 0.000000
vn -1.000000 0.000000 0.000000
vn -1.000000 -0.000000 0.000000
vn -1.000000 0.000000 0.000000
vn -1.000000 0.000000 0.000000
vn -1.000000 0.000000 0.000000
vn -1.000000 0.000000 0.000000
vn -1.000000 0.000000 0.000000
vn -1.000000 0.000000 0.000000
vn -1.000000 0.000000 0.000000
vn -1.000000 0.000000 0.000000
vn -1.000000 0.000000 0.000000
vn -1.000000 0.000000 0.000000
vn -1.000000 -0.000001 0.000000
vn -1.000000 -0.000001 0.000000
vn -1.000000 0.000000 0.000000
vn -1.000000 0.000000 0.000000
vn -1.000000 0.000000 0.000000
vn -1.000000 0.000000 0.000000
vn -1.000000 0.000000 0.000000
vn -1.000000 0.000000 0.000000
vn 0.030890 0.808631 0.587504
vn 0.030890 0.587505 0.808631
vn 0.030890 0.308869 0.950603
vn 0.030890 0.000000 0.999523
vn 0.030890 -0.308870 0.950603
vn 0.030890 -0.587505 0.808631
vn 0.030890 -0.808631 0.587505
vn 0.030890 -0.950603 0.308870
vn 0.030890 -0.999523 0.000000
vn 0.030890 -0.950603 -0.308870
vn 0.030890 -0.808631 -0.587505
vn 0.030890 -0.587505 -0.808631
vn 0.030890 -0.308870 -0.950603
vn 0.030890 -0.000000 -0.999523
vn 0.030890 0.308869 -0.950603
vn 0.030890 0.587505 -0.808631
vn 0.030890 0.808631 -0.587505
vn 0.030890 0.950603 -0.308868
vn 0.030890 0.999523 0.000001
vn 0.030890 0.950603 0.308870
vn -0.015050 0.587719 0.808926
vn -0.015050 0.808926 0.587718
vn -0.015050 0.308982 0.950949
vn -0.015050 0.000000 0.999887
vn -0.015050 -0.308982 0.950949
vn -0.015050 -0.587719 0.808925
vn -0.015050 -0.808925 0.587719
vn -0.015050 -0.950949 0.308982
vn -0.015050 -0.999887 -0.000000
vn -0.015050 -0.950949 -0.308982
vn -0.015050 -0.808925 -0.587719
vn -0.015050 -0.587719 -0.808925
vn -0.015050 -0.308982 -0.950949
vn -0.015050 -0.000000 -0.999887
vn -0.015050 0.308982 -0.950949
vn -0.015050 0.587718 -0.808926
vn -0.015050 0.808926 -0.587719
vn -0.015050 0.950949 -0.308981
vn -0.015050 0.999887 0.000001
vn -0.015050 0.950949 0.308982
vn 0.436694 0.528777 0.727800
vn 0.436695 0.727800 0.528777
vn 0.000000 0.809017 0.587785
vn 0.000000 0.587785 0.809017
vn 0.436694 0.277995 0.855580
vn 0.000000 0.309017 0.951057
vn 0.436694 0.000000 0.899610
vn 0.000000 0.000000 1.000000
vn 0.436694 -0.277994 0.855580
vn 0.000000 -0.309016 0.951057
vn 0.436694 -0.528777 0.727800
vn 0.000000 -0.587785 0.809017
vn 0.436694 -0.727800 0.528778
vn 0.000000 -0.809017 0.587786
vn 0.436695 -0.855580 0.277995
vn 0.000000 -0.951056 0.309018
vn 0.436695 -0.899610 -0.000000
vn 0.000000 -1.000000 0.000000
vn 0.436695 -0.855579 -0.277995
vn 0.000000 -0.951057 -0.309017
vn 0.436695 -0.727800 -0.528777
vn 0.000000 -0.809017 -0.587785
vn 0.436695 -0.528778 -0.727799
vn 0.000000 -0.587786 -0.809017
vn 0.436694 -0.277995 -0.855580
vn 0.000000 -0.309017 -0.951056
vn 0.436694 -0.000000 -0.899610
vn 0.000000 -0.000000 -1.000000
vn 0.436695 0.277994 -0.855580
vn 0.000000 0.309017 -0.951057
vn 0.436695 0.528778 -0.727800
vn 0.000000 0.587785 -0.809017
vn 0.436694 0.727800 -0.528777
vn 0.000000 0.809017 -0.587785
vn 0.436694 0.855580 -0.277994
vn 0.000000 0.951057 -0.309016
vn 0.436694 0.899610 0.000001
vn 0.000000 1.000000 0.000001
vn 0.436694 0.855580 0.277995
vn 0.000000 0.951056 0.309017
vn -0.000000 0.587784 0.809018
vn 0.000000 0.809017 0.587785
vn -0.000000 0.309017 0.951057
vn -0.000000 0.000000 1.000000
vn -0.000000 -0.309016 0.951057
vn 0.000000 -0.587785 0.809017
vn 0.000000 -0.809017 0.587785
vn 0.000000 -0.951056 0.309017
vn -0.000000 -1.000000 -0.000000
vn 0.000000 -0.951057 -0.309017
vn 0.000001 -0.809017 -0.587785
vn 0.000000 -0.587786 -0.809017
vn 0.000000 -0.309017 -0.951056
vn 0.000000 -0.000000 -1.000000
vn -0.000000 0.309016 -0.951057
vn -0.000000 0.587786 -0.809017
vn -0.000000 0.809017 -0.587785
vn -0.000000 0.951057 -0.309017
vn 0.000000 1.000000 0.000002
vn -0.000000 0.951056 0.309018
s 1
g Scar_Casing polySurface146
usemtl blinn1SG
f 1/1/1 2/2/2 59/3/3 60/4/4
f 2/2/2 3/5/5 58/6/6 59/3/3
f 3/5/5 4/7/7 57/8/8 58/6/6
f 4/7/7 5/9/9 56/10/10 57/8/8
f 5/9/9 6/11/11 55/12/12 56/10/10
f 6/11/11 7/13/13 54/14/14 55/12/12
f 7/13/13 8/15/15 53/16/16 54/14/14
f 8/15/15 9/17/17 52/18/18 53/16/16
f 9/17/17 10/19/19 51/20/20 52/18/18
f 10/19/19 11/21/21 50/22/22 51/20/20
f 11/21/21 12/23/23 49/24/24 50/22/22
f 12/23/23 13/25/25 48/26/26 49/24/24
f 13/25/25 14/27/27 47/28/28 48/26/26
f 14/27/27 15/29/29 46/30/30 47/28/28
f 15/29/29 16/31/31 45/32/32 46/30/30
f 16/31/31 17/33/33 44/34/34 45/32/32
f 17/33/33 18/35/35 43/36/36 44/34/34
f 18/35/35 19/37/37 62/38/38 43/36/36
f 19/37/37 20/39/39 61/40/40 62/38/38
f 20/39/39 1/41/1 60/42/4 61/40/40
s 2
f 2/43/41 1/44/42 41/45/43
f 3/46/44 2/43/41 41/45/43
f 4/47/45 3/46/44 41/45/43
f 5/48/46 4/47/45 41/45/43
f 6/49/47 5/48/46 41/45/43
f 7/50/48 6/49/47 41/45/43
f 8/51/49 7/50/48 41/45/43
f 9/52/50 8/51/49 41/45/43
f 10/53/51 9/52/50 41/45/43
f 11/54/52 10/53/51 41/45/43
f 12/55/53 11/54/52 41/45/43
f 13/56/54 12/55/53 41/45/43
f 14/57/55 13/56/54 41/45/43
f 15/58/56 14/57/55 41/45/43
f 16/59/57 15/58/56 41/45/43
f 17/60/58 16/59/57 41/45/43
f 18/61/59 17/60/58 41/45/43
f 19/62/60 18/61/59 41/45/43
f 20/63/61 19/62/60 41/45/43
f 1/44/42 20/63/61 41/45/43
s 3
f 21/64/62 22/65/63 42/66/64
f 22/65/63 23/67/65 42/66/64
f 23/67/65 24/68/66 42/66/64
f 24/68/66 25/69/67 42/66/64
f 25/69/67 26/70/68 42/66/64
f 26/70/68 27/71/69 42/66/64
f 27/71/69 28/72/70 42/66/64
f 28/72/70 29/73/71 42/66/64
f 29/73/71 30/74/72 42/66/64
f 30/74/72 31/75/73 42/66/64
f 31/75/73 32/76/74 42/66/64
f 32/76/74 33/77/75 42/66/64
f 33/77/75 34/78/76 42/66/64
f 34/78/76 35/79/77 42/66/64
f 35/79/77 36/80/78 42/66/64
f 36/80/78 37/81/79 42/66/64
f 37/81/79 38/82/80 42/66/64
f 38/82/80 39/83/81 42/66/64
f 39/83/81 40/84/82 42/66/64
f 40/84/82 21/64/62 42/66/64
s 1
f 44/34/34 43/36/36 63/85/83 64/86/84
f 45/32/32 44/34/34 64/86/84 65/87/85
f 46/30/30 45/32/32 65/87/85 66/88/86
f 47/28/28 46/30/30 66/88/86 67/89/87
f 48/26/26 47/28/28 67/89/87 68/90/88
f 49/24/24 48/26/26 68/90/88 69/91/89
f 50/22/22 49/24/24 69/91/89 70/92/90
f 51/20/20 50/22/22 70/92/90 71/93/91
f 52/18/18 51/20/20 71/93/91 72/94/92
f 53/16/16 52/18/18 72/94/92 73/95/93
f 54/14/14 53/16/16 73/95/93 74/96/94
f 55/12/12 54/14/14 74/96/94 75/97/95
f 56/10/10 55/12/12 75/97/95 76/98/96
f 57/8/8 56/10/10 76/98/96 77/99/97
f 58/6/6 57/8/8 77/99/97 78/100/98
f 59/3/3 58/6/6 78/100/98 79/101/99
f 60/4/4 59/3/3 79/101/99 80/102/100
f 61/40/40 60/42/4 80/103/100 81/104/101
f 62/38/38 61/40/40 81/104/101 82/105/102
f 43/36/36 62/38/38 82/105/102 63/85/83
f 124/106/103 64/86/84 63/85/83 123/107/104
f 125/108/105 65/87/85 64/86/84 124/106/103
f 126/109/106 66/88/86 65/87/85 125/108/105
f 127/110/107 67/89/87 66/88/86 126/109/106
f 128/111/108 68/90/88 67/89/87 127/110/107
f 129/112/109 69/91/89 68/90/88 128/111/108
f 130/113/110 70/92/90 69/91/89 129/112/109
f 131/114/111 71/93/91 70/92/90 130/113/110
f 132/115/112 72/94/92 71/93/91 131/114/111
f 133/116/113 73/95/93 72/94/92 132/115/112
f 134/117/114 74/96/94 73/95/93 133/116/113
f 135/118/115 75/97/95 74/96/94 134/117/114
f 136/119/116 76/98/96 75/97/95 135/118/115
f 137/120/117 77/99/97 76/98/96 136/119/116
f 138/121/118 78/100/98 77/99/97 137/120/117
f 139/122/119 79/101/99 78/100/98 138/121/118
f 140/123/120 80/102/100 79/101/99 139/122/119
f 141/124/121 81/104/101 80/103/100 140/125/120
f 142/126/122 82/105/102 81/104/101 141/124/121
f 123/107/104 63/85/83 82/105/102 142/126/122
f 84/127/123 83/128/124 38/129/125 37/130/126
f 85/131/127 84/127/123 37/130/126 36/132/128
f 86/133/129 85/131/127 36/132/128 35/134/130
f 87/135/131 86/133/129 35/134/130 34/136/132
f 88/137/133 87/135/131 34/136/132 33/138/134
f 89/139/135 88/137/133 33/138/134 32/140/136
f 90/141/137 89/139/135 32/140/136 31/142/138
f 91/143/139 90/141/137 31/142/138 30/144/140
f 92/145/141 91/143/139 30/144/140 29/146/142
f 93/147/143 92/145/141 29/146/142 28/148/144
f 94/149/145 93/147/143 28/148/144 27/150/146
f 95/151/147 94/149/145 27/150/146 26/152/148
f 96/153/149 95/151/147 26/152/148 25/154/150
f 97/155/151 96/153/149 25/154/150 24/156/152
f 98/157/153 97/155/151 24/156/152 23/158/154
f 99/159/155 98/157/153 23/158/154 22/160/156
f 100/161/157 99/159/155 22/160/156 21/162/158
f 101/163/159 100/164/157 21/165/158 40/166/160
f 102/167/161 101/163/159 40/166/160 39/168/162
f 83/128/124 102/167/161 39/168/162 38/129/125
f 104/169/163 103/170/164 83/128/124 84/127/123
f 105/171/165 104/169/163 84/127/123 85/131/127
f 106/172/166 105/171/165 85/131/127 86/133/129
f 107/173/167 106/172/166 86/133/129 87/135/131
f 108/174/168 107/173/167 87/135/131 88/137/133
f 109/175/169 108/174/168 88/137/133 89/139/135
f 110/176/170 109/175/169 89/139/135 90/141/137
f 111/177/171 110/176/170 90/141/137 91/143/139
f 112/178/172 111/177/171 91/143/139 92/145/141
f 113/179/173 112/178/172 92/145/141 93/147/143
f 114/180/174 113/179/173 93/147/143 94/149/145
f 115/181/175 114/180/174 94/149/145 95/151/147
f 116/182/176 115/181/175 95/151/147 96/153/149
f 117/183/177 116/182/176 96/153/149 97/155/151
f 118/184/178 117/183/177 97/155/151 98/157/153
f 119/185/179 118/184/178 98/157/153 99/159/155
f 120/186/180 119/185/179 99/159/155 100/161/157
f 121/187/181 120/188/180 100/164/157 101/163/159
f 122/189/182 121/187/181 101/163/159 102/167/161
f 103/170/164 122/189/182 102/167/161 83/128/124
f 124/106/103 123/107/104 103/170/164 104/169/163
f 125/108/105 124/106/103 104/169/163 105/171/165
f 126/109/106 125/108/105 105/171/165 106/172/166
f 127/110/107 126/109/106 106/172/166 107/173/167
f 128/111/108 127/110/107 107/173/167 108/174/168
f 129/112/109 128/111/108 108/174/168 109/175/169
f 130/113/110 129/112/109 109/175/169 110/176/170
f 131/114/111 130/113/110 110/176/170 111/177/171
f 132/115/112 131/114/111 111/177/171 112/178/172
f 133/116/113 132/115/112 112/178/172 113/179/173
f 134/117/114 133/116/113 113/179/173 114/180/174
f 135/118/115 134/117/114 114/180/174 115/181/175
f 136/119/116 135/118/115 115/181/175 116/182/176
f 137/120/117 136/119/116 116/182/176 117/183/177
f 138/121/118 137/120/117 117/183/177 118/184/178
f 139/122/119 138/121/118 118/184/178 119/185/179
f 140/123/120 139/122/119 119/185/179 120/186/180
f 141/124/121 140/125/120 120/188/180 121/187/181
f 142/126/122 141/124/121 121/187/181 122/189/182
f 123/107/104 142/126/122 122/189/182 103/170/164
