# This file uses centimeters as units for non-parametric coordinates.

mtllib Shed.mtl
g default
v 2.317092 -0.014717 0.709756
v 2.317092 -0.014717 0.619420
v 2.317092 2.214666 0.709756
v 2.317092 2.214666 0.619420
v 2.139314 2.214666 0.709756
v 2.139314 2.214666 0.619420
v 2.139314 -0.014717 0.709756
v 2.139314 -0.014717 0.619420
v 2.317092 -0.014717 -0.555900
v 2.317092 -0.014717 -0.646237
v 2.317092 2.214666 -0.555900
v 2.317092 2.214666 -0.646237
v 2.139314 2.214666 -0.555900
v 2.139314 2.214666 -0.646237
v 2.139314 -0.014717 -0.555900
v 2.139314 -0.014717 -0.646237
v 2.287070 -0.004540 0.615093
v 2.287070 -0.004540 -0.551574
v 2.287070 2.107559 0.615093
v 2.287070 2.107559 -0.551574
v 2.164848 2.107559 0.615093
v 2.164848 2.107559 -0.551574
v 2.164848 -0.004540 0.615093
v 2.164848 -0.004540 -0.551574
v 2.309292 2.114138 0.615093
v 2.309292 2.114138 -0.551574
v 2.309292 2.211138 0.615093
v 2.309292 2.211138 -0.551574
v 2.142626 2.211138 0.615093
v 2.142626 2.211138 -0.551574
v 2.142626 2.114138 0.615093
v 2.142626 2.114138 -0.551574
v 2.456179 4.418544 -0.031760
v 2.456179 4.418544 -4.733855
v 2.456179 4.648263 -0.031760
v 2.456179 4.648263 -4.733855
v -2.392660 5.191939 -0.031760
v -2.392660 5.191939 -4.733855
v -2.392660 4.418544 -0.031760
v -2.392660 4.418544 -4.733855
v 2.456179 4.418544 4.733855
v 2.456179 4.418544 0.031760
v 2.456179 4.648263 4.733855
v 2.456179 4.648263 0.031760
v -2.392660 5.191939 4.733855
v -2.392660 5.191939 0.031760
v -2.392660 4.418544 4.733855
v -2.392660 4.418544 0.031760
v 2.228198 -0.017533 4.291693
v 2.228198 -0.017533 -4.228173
v 2.228198 4.375344 4.291693
v 2.228198 4.375344 -4.228173
v -2.164679 4.375344 4.291693
v -2.164679 4.375344 -4.228173
v -2.164679 -0.017533 4.291693
v -2.164679 -0.017533 -4.228173
vt 0.809291 0.165817
vt 0.864027 0.165817
vt 0.864027 0.220553
vt 0.809291 0.220553
vt 0.864027 0.275289
vt 0.809291 0.275289
vt 0.864027 0.330025
vt 0.809291 0.330025
vt 0.864027 0.384761
vt 0.809291 0.384761
vt 0.918763 0.165817
vt 0.918763 0.220553
vt 0.754555 0.165817
vt 0.754555 0.220553
vt 0.809291 0.165817
vt 0.864027 0.165817
vt 0.864027 0.220553
vt 0.809291 0.220553
vt 0.864027 0.275289
vt 0.809291 0.275289
vt 0.864027 0.330025
vt 0.809291 0.330025
vt 0.864027 0.384761
vt 0.809291 0.384761
vt 0.918763 0.165817
vt 0.918763 0.220553
vt 0.754555 0.165817
vt 0.754555 0.220553
vt 0.591085 0.042993
vt 0.682233 0.042993
vt 0.682233 0.134141
vt 0.591085 0.134141
vt 0.682233 0.225289
vt 0.591085 0.225289
vt 0.682233 0.316437
vt 0.591085 0.316437
vt 0.682233 0.407586
vt 0.591085 0.407586
vt 0.773381 0.042993
vt 0.773381 0.134141
vt 0.499936 0.042993
vt 0.499936 0.134141
vt 0.809291 0.165817
vt 0.864027 0.165817
vt 0.864027 0.220553
vt 0.809291 0.220553
vt 0.864027 0.275289
vt 0.809291 0.275289
vt 0.864027 0.330025
vt 0.809291 0.330025
vt 0.864027 0.384761
vt 0.809291 0.384761
vt 0.918763 0.165817
vt 0.918763 0.220553
vt 0.754555 0.165817
vt 0.754555 0.220553
vt 0.749553 0.453490
vt 0.861120 0.453490
vt 0.861120 0.565057
vt 0.749553 0.565057
vt 0.861120 0.676623
vt 0.749553 0.676623
vt 0.861120 0.788190
vt 0.749553 0.788190
vt 0.861120 0.899756
vt 0.749553 0.899756
vt 0.972686 0.453490
vt 0.972686 0.565057
vt 0.637987 0.453490
vt 0.637987 0.565057
vt 0.749553 0.453490
vt 0.861120 0.453490
vt 0.861120 0.565057
vt 0.749553 0.565057
vt 0.861120 0.676623
vt 0.749553 0.676623
vt 0.861120 0.788190
vt 0.749553 0.788190
vt 0.861120 0.899756
vt 0.749553 0.899756
vt 0.972686 0.453490
vt 0.972686 0.565057
vt 0.637987 0.453490
vt 0.637987 0.565057
vt 0.044567 0.948431
vt 0.044567 0.151569
vt 0.455432 0.151569
vt 0.455432 0.948431
vt 0.494903 0.953565
vt 0.494903 0.610473
vt 0.671803 0.610473
vt 0.671803 0.953565
vt 0.067500 0.730128
vt 0.067500 0.369872
vt 0.253250 0.369872
vt 0.253250 0.730128
vt 0.494903 0.953565
vt 0.494903 0.610473
vt 0.671803 0.610473
vt 0.671803 0.953565
vt 0.494903 0.870469
vt 0.494903 0.693569
vt 0.671803 0.693569
vt 0.671803 0.870469
vt 0.494903 0.870469
vt 0.494903 0.693569
vt 0.671803 0.693569
vt 0.671803 0.870469
vn 1.000000 0.000000 0.000000
vn 1.000000 0.000000 0.000000
vn 1.000000 0.000000 0.000000
vn 1.000000 0.000000 0.000000
vn 0.000000 1.000000 0.000000
vn 0.000000 1.000000 0.000000
vn 0.000000 1.000000 0.000000
vn 0.000000 1.000000 0.000000
vn -1.000000 0.000000 0.000000
vn -1.000000 0.000000 0.000000
vn -1.000000 0.000000 0.000000
vn -1.000000 0.000000 0.000000
vn 0.000000 -1.000000 0.000000
vn 0.000000 -1.000000 0.000000
vn 0.000000 -1.000000 0.000000
vn 0.000000 -1.000000 0.000000
vn 0.000000 0.000000 -1.000000
vn 0.000000 0.000000 -1.000000
vn 0.000000 0.000000 -1.000000
vn 0.000000 0.000000 -1.000000
vn 0.000000 0.000000 1.000000
vn 0.000000 0.000000 1.000000
vn 0.000000 0.000000 1.000000
vn 0.000000 0.000000 1.000000
vn 1.000000 0.000000 0.000000
vn 1.000000 0.000000 0.000000
vn 1.000000 0.000000 0.000000
vn 1.000000 0.000000 0.000000
vn 0.000000 1.000000 0.000000
vn 0.000000 1.000000 0.000000
vn 0.000000 1.000000 0.000000
vn 0.000000 1.000000 0.000000
vn -1.000000 0.000000 0.000000
vn -1.000000 0.000000 0.000000
vn -1.000000 0.000000 0.000000
vn -1.000000 0.000000 0.000000
vn 0.000000 -1.000000 0.000000
vn 0.000000 -1.000000 0.000000
vn 0.000000 -1.000000 0.000000
vn 0.000000 -1.000000 0.000000
vn 0.000000 0.000000 -1.000000
vn 0.000000 0.000000 -1.000000
vn 0.000000 0.000000 -1.000000
vn 0.000000 0.000000 -1.000000
vn 0.000000 0.000000 1.000000
vn 0.000000 0.000000 1.000000
vn 0.000000 0.000000 1.000000
vn 0.000000 0.000000 1.000000
vn 1.000000 0.000000 0.000000
vn 1.000000 0.000000 0.000000
vn 1.000000 0.000000 0.000000
vn 1.000000 0.000000 0.000000
vn 0.000000 1.000000 0.000000
vn 0.000000 1.000000 0.000000
vn 0.000000 1.000000 0.000000
vn 0.000000 1.000000 0.000000
vn -1.000000 0.000000 0.000000
vn -1.000000 0.000000 0.000000
vn -1.000000 0.000000 0.000000
vn -1.000000 0.000000 0.000000
vn 0.000000 -1.000000 0.000000
vn 0.000000 -1.000000 0.000000
vn 0.000000 -1.000000 0.000000
vn 0.000000 -1.000000 0.000000
vn 0.000000 0.000000 -1.000000
vn 0.000000 0.000000 -1.000000
vn 0.000000 0.000000 -1.000000
vn 0.000000 0.000000 -1.000000
vn 0.000000 0.000000 1.000000
vn 0.000000 0.000000 1.000000
vn 0.000000 0.000000 1.000000
vn 0.000000 0.000000 1.000000
vn 1.000000 0.000000 0.000000
vn 1.000000 0.000000 0.000000
vn 1.000000 0.000000 0.000000
vn 1.000000 0.000000 0.000000
vn 0.000000 1.000000 0.000000
vn 0.000000 1.000000 0.000000
vn 0.000000 1.000000 0.000000
vn 0.000000 1.000000 0.000000
vn -1.000000 0.000000 0.000000
vn -1.000000 0.000000 0.000000
vn -1.000000 0.000000 0.000000
vn -1.000000 0.000000 0.000000
vn 0.000000 -1.000000 0.000000
vn 0.000000 -1.000000 0.000000
vn 0.000000 -1.000000 0.000000
vn 0.000000 -1.000000 0.000000
vn 0.000000 0.000000 -1.000000
vn 0.000000 0.000000 -1.000000
vn 0.000000 0.000000 -1.000000
vn 0.000000 0.000000 -1.000000
vn 0.000000 0.000000 1.000000
vn 0.000000 0.000000 1.000000
vn 0.000000 0.000000 1.000000
vn 0.000000 0.000000 1.000000
vn 1.000000 0.000000 0.000000
vn 1.000000 0.000000 0.000000
vn 1.000000 0.000000 0.000000
vn 1.000000 0.000000 0.000000
vn 0.111427 0.993773 0.000000
vn 0.111427 0.993773 0.000000
vn 0.111427 0.993773 0.000000
vn 0.111427 0.993773 0.000000
vn -1.000000 0.000000 0.000000
vn -1.000000 0.000000 0.000000
vn -1.000000 0.000000 0.000000
vn -1.000000 0.000000 0.000000
vn 0.000000 -1.000000 0.000000
vn 0.000000 -1.000000 0.000000
vn 0.000000 -1.000000 0.000000
vn 0.000000 -1.000000 0.000000
vn 0.000000 0.000000 -1.000000
vn 0.000000 0.000000 -1.000000
vn 0.000000 0.000000 -1.000000
vn 0.000000 0.000000 -1.000000
vn 0.000000 0.000000 1.000000
vn 0.000000 0.000000 1.000000
vn 0.000000 0.000000 1.000000
vn 0.000000 0.000000 1.000000
vn 1.000000 0.000000 0.000000
vn 1.000000 0.000000 0.000000
vn 1.000000 0.000000 0.000000
vn 1.000000 0.000000 0.000000
vn 0.111427 0.993773 0.000000
vn 0.111427 0.993773 0.000000
vn 0.111427 0.993773 0.000000
vn 0.111427 0.993773 0.000000
vn -1.000000 0.000000 0.000000
vn -1.000000 0.000000 0.000000
vn -1.000000 0.000000 0.000000
vn -1.000000 0.000000 0.000000
vn 0.000000 -1.000000 0.000000
vn 0.000000 -1.000000 0.000000
vn 0.000000 -1.000000 0.000000
vn 0.000000 -1.000000 0.000000
vn 0.000000 0.000000 -1.000000
vn 0.000000 0.000000 -1.000000
vn 0.000000 0.000000 -1.000000
vn 0.000000 0.000000 -1.000000
vn 0.000000 0.000000 1.000000
vn 0.000000 0.000000 1.000000
vn 0.000000 0.000000 1.000000
vn 0.000000 0.000000 1.000000
vn 1.000000 0.000000 0.000000
vn 1.000000 0.000000 0.000000
vn 1.000000 0.000000 0.000000
vn 1.000000 0.000000 0.000000
vn 0.000000 1.000000 0.000000
vn 0.000000 1.000000 0.000000
vn 0.000000 1.000000 0.000000
vn 0.000000 1.000000 0.000000
vn -1.000000 0.000000 0.000000
vn -1.000000 0.000000 0.000000
vn -1.000000 0.000000 0.000000
vn -1.000000 0.000000 0.000000
vn 0.000000 -1.000000 0.000000
vn 0.000000 -1.000000 0.000000
vn 0.000000 -1.000000 0.000000
vn 0.000000 -1.000000 0.000000
vn 0.000000 0.000000 -1.000000
vn 0.000000 0.000000 -1.000000
vn 0.000000 0.000000 -1.000000
vn 0.000000 0.000000 -1.000000
vn 0.000000 0.000000 1.000000
vn 0.000000 0.000000 1.000000
vn 0.000000 0.000000 1.000000
vn 0.000000 0.000000 1.000000
s 1
g polySurface7
usemtl lambert2SG
f 1/1/1 2/2/2 3/4/3
f 3/4/3 2/2/2 4/3/4
s 2
f 3/4/5 4/3/6 5/6/7
f 5/6/7 4/3/6 6/5/8
s 3
f 5/6/9 6/5/10 7/8/11
f 7/8/11 6/5/10 8/7/12
s 4
f 7/8/13 8/7/14 1/10/15
f 1/10/15 8/7/14 2/9/16
s 5
f 2/2/17 8/11/18 4/3/19
f 4/3/19 8/11/18 6/12/20
s 6
f 7/13/21 1/1/22 5/14/23
f 5/14/23 1/1/22 3/4/24
s 7
f 9/15/25 10/16/26 11/18/27
f 11/18/27 10/16/26 12/17/28
s 8
f 11/18/29 12/17/30 13/20/31
f 13/20/31 12/17/30 14/19/32
s 9
f 13/20/33 14/19/34 15/22/35
f 15/22/35 14/19/34 16/21/36
s 10
f 15/22/37 16/21/38 9/24/39
f 9/24/39 16/21/38 10/23/40
s 11
f 10/16/41 16/25/42 12/17/43
f 12/17/43 16/25/42 14/26/44
s 12
f 15/27/45 9/15/46 13/28/47
f 13/28/47 9/15/46 11/18/48
s 13
f 17/29/49 18/30/50 19/32/51
f 19/32/51 18/30/50 20/31/52
s 14
f 19/32/53 20/31/54 21/34/55
f 21/34/55 20/31/54 22/33/56
s 15
f 21/34/57 22/33/58 23/36/59
f 23/36/59 22/33/58 24/35/60
s 16
f 23/36/61 24/35/62 17/38/63
f 17/38/63 24/35/62 18/37/64
s 17
f 18/30/65 24/39/66 20/31/67
f 20/31/67 24/39/66 22/40/68
s 18
f 23/41/69 17/29/70 21/42/71
f 21/42/71 17/29/70 19/32/72
s 19
f 25/43/73 26/44/74 27/46/75
f 27/46/75 26/44/74 28/45/76
s 20
f 27/46/77 28/45/78 29/48/79
f 29/48/79 28/45/78 30/47/80
s 21
f 29/48/81 30/47/82 31/50/83
f 31/50/83 30/47/82 32/49/84
s 22
f 31/50/85 32/49/86 25/52/87
f 25/52/87 32/49/86 26/51/88
s 23
f 26/44/89 32/53/90 28/45/91
f 28/45/91 32/53/90 30/54/92
s 24
f 31/55/93 25/43/94 29/56/95
f 29/56/95 25/43/94 27/46/96
s 25
f 33/57/97 34/58/98 35/60/99
f 35/60/99 34/58/98 36/59/100
s 26
f 35/60/101 36/59/102 37/62/103
f 37/62/103 36/59/102 38/61/104
s 27
f 37/62/105 38/61/106 39/64/107
f 39/64/107 38/61/106 40/63/108
s 28
f 39/64/109 40/63/110 33/66/111
f 33/66/111 40/63/110 34/65/112
s 29
f 34/58/113 40/67/114 36/59/115
f 36/59/115 40/67/114 38/68/116
s 30
f 33/57/117 35/60/118 39/69/119
f 39/69/119 35/60/118 37/70/120
s 31
f 41/71/121 42/72/122 43/74/123
f 43/74/123 42/72/122 44/73/124
s 32
f 43/74/125 44/73/126 45/76/127
f 45/76/127 44/73/126 46/75/128
s 33
f 45/76/129 46/75/130 47/78/131
f 47/78/131 46/75/130 48/77/132
s 34
f 47/78/133 48/77/134 41/80/135
f 41/80/135 48/77/134 42/79/136
s 35
f 42/72/137 48/81/138 44/73/139
f 44/73/139 48/81/138 46/82/140
s 36
f 41/71/141 43/74/142 47/83/143
f 47/83/143 43/74/142 45/84/144
s 37
f 49/85/145 50/86/146 51/88/147
f 51/88/147 50/86/146 52/87/148
s 38
f 51/89/149 52/90/150 53/92/151
f 53/92/151 52/90/150 54/91/152
s 39
f 53/93/153 54/94/154 55/96/155
f 55/96/155 54/94/154 56/95/156
s 40
f 55/97/157 56/98/158 49/100/159
f 49/100/159 56/98/158 50/99/160
s 41
f 50/101/161 56/102/162 52/104/163
f 52/104/163 56/102/162 54/103/164
s 42
f 55/105/165 49/106/166 53/108/167
f 53/108/167 49/106/166 51/107/168
g default
v 2.317092 -0.014717 0.709756
v 2.317092 -0.014717 0.619420
v 2.317092 2.214666 0.709756
v 2.317092 2.214666 0.619420
v 2.139314 2.214666 0.709756
v 2.139314 2.214666 0.619420
v 2.139314 -0.014717 0.709756
v 2.139314 -0.014717 0.619420
v 2.317092 -0.014717 -0.555900
v 2.317092 -0.014717 -0.646237
v 2.317092 2.214666 -0.555900
v 2.317092 2.214666 -0.646237
v 2.139314 2.214666 -0.555900
v 2.139314 2.214666 -0.646237
v 2.139314 -0.014717 -0.555900
v 2.139314 -0.014717 -0.646237
v 2.287070 -0.004540 0.615093
v 2.287070 -0.004540 -0.551574
v 2.287070 2.107559 0.615093
v 2.287070 2.107559 -0.551574
v 2.164848 2.107559 0.615093
v 2.164848 2.107559 -0.551574
v 2.164848 -0.004540 0.615093
v 2.164848 -0.004540 -0.551574
v 2.309292 2.114138 0.615093
v 2.309292 2.114138 -0.551574
v 2.309292 2.211138 0.615093
v 2.309292 2.211138 -0.551574
v 2.142626 2.211138 0.615093
v 2.142626 2.211138 -0.551574
v 2.142626 2.114138 0.615093
v 2.142626 2.114138 -0.551574
v 2.456179 4.418544 -0.031760
v 2.456179 4.418544 -4.733855
v 2.456179 4.648263 -0.031760
v 2.456179 4.648263 -4.733855
v -2.392660 5.191939 -0.031760
v -2.392660 5.191939 -4.733855
v -2.392660 4.418544 -0.031760
v -2.392660 4.418544 -4.733855
v 2.456179 4.418544 4.733855
v 2.456179 4.418544 0.031760
v 2.456179 4.648263 4.733855
v 2.456179 4.648263 0.031760
v -2.392660 5.191939 4.733855
v -2.392660 5.191939 0.031760
v -2.392660 4.418544 4.733855
v -2.392660 4.418544 0.031760
v 2.228198 -0.017533 4.291693
v 2.228198 -0.017533 -4.228173
v 2.228198 4.375344 4.291693
v 2.228198 4.375344 -4.228173
v -2.164679 4.375344 4.291693
v -2.164679 4.375344 -4.228173
v -2.164679 -0.017533 4.291693
v -2.164679 -0.017533 -4.228173
vt 0.809291 0.165817
vt 0.864027 0.165817
vt 0.864027 0.220553
vt 0.809291 0.220553
vt 0.864027 0.275289
vt 0.809291 0.275289
vt 0.864027 0.330025
vt 0.809291 0.330025
vt 0.864027 0.384761
vt 0.809291 0.384761
vt 0.918763 0.165817
vt 0.918763 0.220553
vt 0.754555 0.165817
vt 0.754555 0.220553
vt 0.809291 0.165817
vt 0.864027 0.165817
vt 0.864027 0.220553
vt 0.809291 0.220553
vt 0.864027 0.275289
vt 0.809291 0.275289
vt 0.864027 0.330025
vt 0.809291 0.330025
vt 0.864027 0.384761
vt 0.809291 0.384761
vt 0.918763 0.165817
vt 0.918763 0.220553
vt 0.754555 0.165817
vt 0.754555 0.220553
vt 0.591085 0.042993
vt 0.682233 0.042993
vt 0.682233 0.134141
vt 0.591085 0.134141
vt 0.682233 0.225289
vt 0.591085 0.225289
vt 0.682233 0.316437
vt 0.591085 0.316437
vt 0.682233 0.407586
vt 0.591085 0.407586
vt 0.773381 0.042993
vt 0.773381 0.134141
vt 0.499936 0.042993
vt 0.499936 0.134141
vt 0.809291 0.165817
vt 0.864027 0.165817
vt 0.864027 0.220553
vt 0.809291 0.220553
vt 0.864027 0.275289
vt 0.809291 0.275289
vt 0.864027 0.330025
vt 0.809291 0.330025
vt 0.864027 0.384761
vt 0.809291 0.384761
vt 0.918763 0.165817
vt 0.918763 0.220553
vt 0.754555 0.165817
vt 0.754555 0.220553
vt 0.749553 0.453490
vt 0.861120 0.453490
vt 0.861120 0.565057
vt 0.749553 0.565057
vt 0.861120 0.676623
vt 0.749553 0.676623
vt 0.861120 0.788190
vt 0.749553 0.788190
vt 0.861120 0.899756
vt 0.749553 0.899756
vt 0.972686 0.453490
vt 0.972686 0.565057
vt 0.637987 0.453490
vt 0.637987 0.565057
vt 0.749553 0.453490
vt 0.861120 0.453490
vt 0.861120 0.565057
vt 0.749553 0.565057
vt 0.861120 0.676623
vt 0.749553 0.676623
vt 0.861120 0.788190
vt 0.749553 0.788190
vt 0.861120 0.899756
vt 0.749553 0.899756
vt 0.972686 0.453490
vt 0.972686 0.565057
vt 0.637987 0.453490
vt 0.637987 0.565057
vt 0.044567 0.948431
vt 0.044567 0.151569
vt 0.455432 0.151569
vt 0.455432 0.948431
vt 0.494903 0.953565
vt 0.494903 0.610473
vt 0.671803 0.610473
vt 0.671803 0.953565
vt 0.067500 0.730128
vt 0.067500 0.369872
vt 0.253250 0.369872
vt 0.253250 0.730128
vt 0.494903 0.953565
vt 0.494903 0.610473
vt 0.671803 0.610473
vt 0.671803 0.953565
vt 0.494903 0.870469
vt 0.494903 0.693569
vt 0.671803 0.693569
vt 0.671803 0.870469
vt 0.494903 0.870469
vt 0.494903 0.693569
vt 0.671803 0.693569
vt 0.671803 0.870469
vn 1.000000 0.000000 0.000000
vn 1.000000 0.000000 0.000000
vn 1.000000 0.000000 0.000000
vn 1.000000 0.000000 0.000000
vn 0.000000 1.000000 0.000000
vn 0.000000 1.000000 0.000000
vn 0.000000 1.000000 0.000000
vn 0.000000 1.000000 0.000000
vn -1.000000 0.000000 0.000000
vn -1.000000 0.000000 0.000000
vn -1.000000 0.000000 0.000000
vn -1.000000 0.000000 0.000000
vn 0.000000 -1.000000 0.000000
vn 0.000000 -1.000000 0.000000
vn 0.000000 -1.000000 0.000000
vn 0.000000 -1.000000 0.000000
vn 0.000000 0.000000 -1.000000
vn 0.000000 0.000000 -1.000000
vn 0.000000 0.000000 -1.000000
vn 0.000000 0.000000 -1.000000
vn 0.000000 0.000000 1.000000
vn 0.000000 0.000000 1.000000
vn 0.000000 0.000000 1.000000
vn 0.000000 0.000000 1.000000
vn 1.000000 0.000000 0.000000
vn 1.000000 0.000000 0.000000
vn 1.000000 0.000000 0.000000
vn 1.000000 0.000000 0.000000
vn 0.000000 1.000000 0.000000
vn 0.000000 1.000000 0.000000
vn 0.000000 1.000000 0.000000
vn 0.000000 1.000000 0.000000
vn -1.000000 0.000000 0.000000
vn -1.000000 0.000000 0.000000
vn -1.000000 0.000000 0.000000
vn -1.000000 0.000000 0.000000
vn 0.000000 -1.000000 0.000000
vn 0.000000 -1.000000 0.000000
vn 0.000000 -1.000000 0.000000
vn 0.000000 -1.000000 0.000000
vn 0.000000 0.000000 -1.000000
vn 0.000000 0.000000 -1.000000
vn 0.000000 0.000000 -1.000000
vn 0.000000 0.000000 -1.000000
vn 0.000000 0.000000 1.000000
vn 0.000000 0.000000 1.000000
vn 0.000000 0.000000 1.000000
vn 0.000000 0.000000 1.000000
vn 1.000000 0.000000 0.000000
vn 1.000000 0.000000 0.000000
vn 1.000000 0.000000 0.000000
vn 1.000000 0.000000 0.000000
vn 0.000000 1.000000 0.000000
vn 0.000000 1.000000 0.000000
vn 0.000000 1.000000 0.000000
vn 0.000000 1.000000 0.000000
vn -1.000000 0.000000 0.000000
vn -1.000000 0.000000 0.000000
vn -1.000000 0.000000 0.000000
vn -1.000000 0.000000 0.000000
vn 0.000000 -1.000000 0.000000
vn 0.000000 -1.000000 0.000000
vn 0.000000 -1.000000 0.000000
vn 0.000000 -1.000000 0.000000
vn 0.000000 0.000000 -1.000000
vn 0.000000 0.000000 -1.000000
vn 0.000000 0.000000 -1.000000
vn 0.000000 0.000000 -1.000000
vn 0.000000 0.000000 1.000000
vn 0.000000 0.000000 1.000000
vn 0.000000 0.000000 1.000000
vn 0.000000 0.000000 1.000000
vn 1.000000 0.000000 0.000000
vn 1.000000 0.000000 0.000000
vn 1.000000 0.000000 0.000000
vn 1.000000 0.000000 0.000000
vn 0.000000 1.000000 0.000000
vn 0.000000 1.000000 0.000000
vn 0.000000 1.000000 0.000000
vn 0.000000 1.000000 0.000000
vn -1.000000 0.000000 0.000000
vn -1.000000 0.000000 0.000000
vn -1.000000 0.000000 0.000000
vn -1.000000 0.000000 0.000000
vn 0.000000 -1.000000 0.000000
vn 0.000000 -1.000000 0.000000
vn 0.000000 -1.000000 0.000000
vn 0.000000 -1.000000 0.000000
vn 0.000000 0.000000 -1.000000
vn 0.000000 0.000000 -1.000000
vn 0.000000 0.000000 -1.000000
vn 0.000000 0.000000 -1.000000
vn 0.000000 0.000000 1.000000
vn 0.000000 0.000000 1.000000
vn 0.000000 0.000000 1.000000
vn 0.000000 0.000000 1.000000
vn 1.000000 0.000000 0.000000
vn 1.000000 0.000000 0.000000
vn 1.000000 0.000000 0.000000
vn 1.000000 0.000000 0.000000
vn 0.111427 0.993773 0.000000
vn 0.111427 0.993773 0.000000
vn 0.111427 0.993773 0.000000
vn 0.111427 0.993773 0.000000
vn -1.000000 0.000000 0.000000
vn -1.000000 0.000000 0.000000
vn -1.000000 0.000000 0.000000
vn -1.000000 0.000000 0.000000
vn 0.000000 -1.000000 0.000000
vn 0.000000 -1.000000 0.000000
vn 0.000000 -1.000000 0.000000
vn 0.000000 -1.000000 0.000000
vn 0.000000 0.000000 -1.000000
vn 0.000000 0.000000 -1.000000
vn 0.000000 0.000000 -1.000000
vn 0.000000 0.000000 -1.000000
vn 0.000000 0.000000 1.000000
vn 0.000000 0.000000 1.000000
vn 0.000000 0.000000 1.000000
vn 0.000000 0.000000 1.000000
vn 1.000000 0.000000 0.000000
vn 1.000000 0.000000 0.000000
vn 1.000000 0.000000 0.000000
vn 1.000000 0.000000 0.000000
vn 0.111427 0.993773 0.000000
vn 0.111427 0.993773 0.000000
vn 0.111427 0.993773 0.000000
vn 0.111427 0.993773 0.000000
vn -1.000000 0.000000 0.000000
vn -1.000000 0.000000 0.000000
vn -1.000000 0.000000 0.000000
vn -1.000000 0.000000 0.000000
vn 0.000000 -1.000000 0.000000
vn 0.000000 -1.000000 0.000000
vn 0.000000 -1.000000 0.000000
vn 0.000000 -1.000000 0.000000
vn 0.000000 0.000000 -1.000000
vn 0.000000 0.000000 -1.000000
vn 0.000000 0.000000 -1.000000
vn 0.000000 0.000000 -1.000000
vn 0.000000 0.000000 1.000000
vn 0.000000 0.000000 1.000000
vn 0.000000 0.000000 1.000000
vn 0.000000 0.000000 1.000000
vn 1.000000 0.000000 0.000000
vn 1.000000 0.000000 0.000000
vn 1.000000 0.000000 0.000000
vn 1.000000 0.000000 0.000000
vn 0.000000 1.000000 0.000000
vn 0.000000 1.000000 0.000000
vn 0.000000 1.000000 0.000000
vn 0.000000 1.000000 0.000000
vn -1.000000 0.000000 0.000000
vn -1.000000 0.000000 0.000000
vn -1.000000 0.000000 0.000000
vn -1.000000 0.000000 0.000000
vn 0.000000 -1.000000 0.000000
vn 0.000000 -1.000000 0.000000
vn 0.000000 -1.000000 0.000000
vn 0.000000 -1.000000 0.000000
vn 0.000000 0.000000 -1.000000
vn 0.000000 0.000000 -1.000000
vn 0.000000 0.000000 -1.000000
vn 0.000000 0.000000 -1.000000
vn 0.000000 0.000000 1.000000
vn 0.000000 0.000000 1.000000
vn 0.000000 0.000000 1.000000
vn 0.000000 0.000000 1.000000
s 1
g polySurface7
f 57/109/169 58/110/170 59/112/171
f 59/112/171 58/110/170 60/111/172
s 2
f 59/112/173 60/111/174 61/114/175
f 61/114/175 60/111/174 62/113/176
s 3
f 61/114/177 62/113/178 63/116/179
f 63/116/179 62/113/178 64/115/180
s 4
f 63/116/181 64/115/182 57/118/183
f 57/118/183 64/115/182 58/117/184
s 5
f 58/110/185 64/119/186 60/111/187
f 60/111/187 64/119/186 62/120/188
s 6
f 63/121/189 57/109/190 61/122/191
f 61/122/191 57/109/190 59/112/192
s 7
f 65/123/193 66/124/194 67/126/195
f 67/126/195 66/124/194 68/125/196
s 8
f 67/126/197 68/125/198 69/128/199
f 69/128/199 68/125/198 70/127/200
s 9
f 69/128/201 70/127/202 71/130/203
f 71/130/203 70/127/202 72/129/204
s 10
f 71/130/205 72/129/206 65/132/207
f 65/132/207 72/129/206 66/131/208
s 11
f 66/124/209 72/133/210 68/125/211
f 68/125/211 72/133/210 70/134/212
s 12
f 71/135/213 65/123/214 69/136/215
f 69/136/215 65/123/214 67/126/216
s 13
f 73/137/217 74/138/218 75/140/219
f 75/140/219 74/138/218 76/139/220
s 14
f 75/140/221 76/139/222 77/142/223
f 77/142/223 76/139/222 78/141/224
s 15
f 77/142/225 78/141/226 79/144/227
f 79/144/227 78/141/226 80/143/228
s 16
f 79/144/229 80/143/230 73/146/231
f 73/146/231 80/143/230 74/145/232
s 17
f 74/138/233 80/147/234 76/139/235
f 76/139/235 80/147/234 78/148/236
s 18
f 79/149/237 73/137/238 77/150/239
f 77/150/239 73/137/238 75/140/240
s 19
f 81/151/241 82/152/242 83/154/243
f 83/154/243 82/152/242 84/153/244
s 20
f 83/154/245 84/153/246 85/156/247
f 85/156/247 84/153/246 86/155/248
s 21
f 85/156/249 86/155/250 87/158/251
f 87/158/251 86/155/250 88/157/252
s 22
f 87/158/253 88/157/254 81/160/255
f 81/160/255 88/157/254 82/159/256
s 23
f 82/152/257 88/161/258 84/153/259
f 84/153/259 88/161/258 86/162/260
s 24
f 87/163/261 81/151/262 85/164/263
f 85/164/263 81/151/262 83/154/264
s 25
f 89/165/265 90/166/266 91/168/267
f 91/168/267 90/166/266 92/167/268
s 26
f 91/168/269 92/167/270 93/170/271
f 93/170/271 92/167/270 94/169/272
s 27
f 93/170/273 94/169/274 95/172/275
f 95/172/275 94/169/274 96/171/276
s 28
f 95/172/277 96/171/278 89/174/279
f 89/174/279 96/171/278 90/173/280
s 29
f 90/166/281 96/175/282 92/167/283
f 92/167/283 96/175/282 94/176/284
s 30
f 89/165/285 91/168/286 95/177/287
f 95/177/287 91/168/286 93/178/288
s 31
f 97/179/289 98/180/290 99/182/291
f 99/182/291 98/180/290 100/181/292
s 32
f 99/182/293 100/181/294 101/184/295
f 101/184/295 100/181/294 102/183/296
s 33
f 101/184/297 102/183/298 103/186/299
f 103/186/299 102/183/298 104/185/300
s 34
f 103/186/301 104/185/302 97/188/303
f 97/188/303 104/185/302 98/187/304
s 35
f 98/180/305 104/189/306 100/181/307
f 100/181/307 104/189/306 102/190/308
s 36
f 97/179/309 99/182/310 103/191/311
f 103/191/311 99/182/310 101/192/312
s 37
f 105/193/313 106/194/314 107/196/315
f 107/196/315 106/194/314 108/195/316
s 38
f 107/197/317 108/198/318 109/200/319
f 109/200/319 108/198/318 110/199/320
s 39
f 109/201/321 110/202/322 111/204/323
f 111/204/323 110/202/322 112/203/324
s 40
f 111/205/325 112/206/326 105/208/327
f 105/208/327 112/206/326 106/207/328
s 41
f 106/209/329 112/210/330 108/212/331
f 108/212/331 112/210/330 110/211/332
s 42
f 111/213/333 105/214/334 109/216/335
f 109/216/335 105/214/334 107/215/336
